<?xml version="1.0" encoding="UTF-8" standalone="no"?>
<svg width="11px" height="6px" viewBox="0 0 11 6" version="1.1" xmlns="http://www.w3.org/2000/svg" xmlns:xlink="http://www.w3.org/1999/xlink">
    <defs></defs>
    <g stroke="none" stroke-width="1" fill="none" fill-rule="evenodd">
        <g transform="translate(-377.000000, -102.000000)">
            <g transform="translate(0.000000, 64.000000)">
                <g transform="translate(211.000000, 18.000000)">
                    <g transform="translate(159.000000, 10.000000)">
                        <g>
                            <rect x="0" y="0" width="24" height="24"></rect>
                            <path d="M7.85,15.85 L12.5,11.2 L17.125,15.825 C17.325,16.025 17.65,16.025 17.85,15.825 C18.05,15.625 18.05,15.3 17.85,15.125 L12.875,10.15 C12.775,10.05 12.65,10 12.525,10 C12.375,10 12.25,10.05 12.15,10.15 L7.15,15.15 C6.95,15.35 6.95,15.65 7.15,15.85 C7.325,16.05 7.65,16.05 7.85,15.85 Z" fill="#2C2E2F" transform="translate(12.500000, 13.000000) rotate(-180.000000) translate(-12.500000, -13.000000) "></path>
                        </g>
                    </g>
                </g>
            </g>
        </g>
    </g>
</svg>