<?xml version="1.0" encoding="UTF-8" standalone="no"?>
<svg width="46px" height="37px" viewBox="0 0 46 37" version="1.1" xmlns="http://www.w3.org/2000/svg" xmlns:xlink="http://www.w3.org/1999/xlink">
    <defs></defs>
    <g stroke="none" stroke-width="1" fill="none" fill-rule="evenodd">
        <g transform="translate(-843.000000, -1714.000000)">
            <g transform="translate(735.000000, 1657.000000)">
                <g transform="translate(103.000000, 48.000000)">
                    <g>
                        <rect x="0" y="0" width="56" height="56"></rect>
                        <path d="M14,10.5 L49.4970177,10.5 C50.0509495,10.5 50.5,10.9549243 50.5,11.4991421 L50.5,44.5008579 C50.5,45.0526688 50.0546192,45.5 49.4970177,45.5 L6.50298231,45.5 C5.94905047,45.5 5.5,45.0450757 5.5,44.5008579 L5.5,10.4991421" stroke="#2C2E2F" stroke-linecap="round"></path>
                        <path d="M28,41 C28,41 37.8,40.0005915 37.8,25.9098334 L28,20.6 L18.2,25.9098334 C18.2,40.0005915 28,41 28,41 Z" stroke="#2C2E2F"></path>
                        <path d="M11,16.5 L50.5,16.5" stroke="#2C2E2F" stroke-linecap="round"></path>
                        <path d="M28,21.5 L28,40.5950222" stroke="#2C2E2F" stroke-linecap="square"></path>
                    </g>
                </g>
            </g>
        </g>
    </g>
</svg>