<?xml version="1.0" encoding="UTF-8" standalone="no"?>
<svg width="46px" height="38px" viewBox="0 0 46 38" version="1.1" xmlns="http://www.w3.org/2000/svg" xmlns:xlink="http://www.w3.org/1999/xlink">
    <defs></defs>
    <g stroke="none" stroke-width="1" fill="none" fill-rule="evenodd">
        <g transform="translate(-551.000000, -1714.000000)">
            <g transform="translate(443.000000, 1657.000000)">
                <g transform="translate(103.000000, 48.000000)">
                    <g>
                        <rect x="0" y="0" width="56" height="56"></rect>
                        <path d="M38.4161885,29.4489829 C39.3772528,30.4100472 39.8577777,31.5689602 39.8577777,32.9257568 C39.8577777,34.2825534 39.3772528,35.4414665 38.4161885,36.4025307 C37.4551243,37.363595 36.2962112,37.8441199 34.9394146,37.8441199 C33.5731958,37.8441199 32.4095717,37.363595 31.4485075,36.4025307 C30.4874432,35.4414665 30.0069183,34.2825534 30.0069183,32.9257568 C30.0069183,31.5689602 30.4874432,30.4100472 31.4485075,29.4489829 C32.4095717,28.4879186 33.5731958,28.0073937 34.9394146,28.0073937 C36.2962112,28.0073937 37.4551243,28.4879186 38.4161885,29.4489829 L38.4161885,29.4489829 L38.4161885,29.4489829 Z M33.5900967,17.6901378 L34.4588849,17.6901378 L23.1381698,38.3811826 L22.2693816,38.3811826 L33.5900967,17.6901378 L33.5900967,17.6901378 Z M24.0239861,26.0917732 C24.8406944,25.2750649 25.2490424,24.2930049 25.2490424,23.1455635 C25.2490424,21.9981222 24.8406944,21.0160621 24.0239861,20.1993538 C23.2072779,19.3826456 22.2184682,18.9742976 21.0575276,18.9742976 C19.9100862,18.9742976 18.9280261,19.3792708 18.1113179,20.1892294 C17.2946096,20.999188 16.8862616,21.9846229 16.8862616,23.1455635 C16.8862616,24.2930049 17.2946096,25.2750649 18.1113179,26.0917732 C18.9280261,26.9084815 19.9100862,27.3168295 21.0575276,27.3168295 C22.2184682,27.3168295 23.2072779,26.9084815 24.0239861,26.0917732 L24.0239861,26.0917732 L24.0239861,26.0917732 Z M37.8347052,35.8181744 C38.6365019,35.0163777 39.0373943,34.0522481 39.0373943,32.9257568 C39.0373943,31.7992655 38.6365019,30.835136 37.8347052,30.0333392 C37.0329084,29.2315425 36.0687789,28.8306501 34.9422876,28.8306501 C33.8025434,28.8306501 32.8317876,29.2315425 32.0299908,30.0333392 C31.2281941,30.835136 30.8273017,31.7992655 30.8273017,32.9257568 C30.8273017,34.0522481 31.2281941,35.0163777 32.0299908,35.8181744 C32.8317876,36.6199712 33.8025434,37.0208635 34.9422876,37.0208635 C36.0687789,37.0208635 37.0329084,36.6199712 37.8347052,35.8181744 L37.8347052,35.8181744 L37.8347052,35.8181744 Z M24.5514925,26.6223374 C23.5904283,27.5834017 22.4268042,28.0639266 21.0605854,28.0639266 C19.7037888,28.0639266 18.5448757,27.5834017 17.5838115,26.6223374 C16.6227472,25.6612732 16.1422223,24.5023601 16.1422223,23.1455635 C16.1422223,21.7887669 16.6227472,20.6274984 17.5838115,19.661723 C18.5448757,18.6959476 19.7037888,18.2130672 21.0605854,18.2130672 C22.4268042,18.2130672 23.5904283,18.6959476 24.5514925,19.661723 C25.5125568,20.6274984 25.9930817,21.7887669 25.9930817,23.1455635 C25.9930817,24.5023601 25.5125568,25.6612732 24.5514925,26.6223374 Z" fill="#2C2E2F"></path>
                        <path d="M14,10.5004289 L49.4970177,10.5004289 C50.0509495,10.5004289 50.5,10.9553532 50.5,11.4995711 L50.5,44.5012868 C50.5,45.0530978 50.0546192,45.5004289 49.4970177,45.5004289 L6.50298231,45.5004289 C5.94905047,45.5004289 5.5,45.0455047 5.5,44.5012868 L5.5,10.4995711" stroke="#2C2E2F" stroke-linecap="round"></path>
                    </g>
                </g>
            </g>
        </g>
    </g>
</svg>