<?xml version="1.0" encoding="UTF-8" standalone="no"?>
<svg width="31px" height="36px" viewBox="0 0 31 36" version="1.1" xmlns="http://www.w3.org/2000/svg" xmlns:xlink="http://www.w3.org/1999/xlink">
    <defs></defs>
    <g stroke="none" stroke-width="1" fill="none" fill-rule="evenodd">
        <g transform="translate(-558.000000, -2450.000000)">
            <g transform="translate(443.000000, 2397.000000)">
                <g transform="translate(103.000000, 43.000000)">
                    <rect x="0" y="0" width="56" height="56"></rect>
                    <path d="M19.7603498,42.6218589 C19.5836759,43.6728619 19.460478,44.4177475 19.4320478,44.5969537 C19.3528491,45.0950322 19.8111182,45.5 20.2910484,45.5 L25.5059747,45.5 C26.2174087,45.5 26.8232444,45.0121254 26.933581,44.3501466 L28.1980517,36.9242492 C28.3090652,36.2616326 28.914901,35.7743958 29.6270119,35.7743958 L30.5252735,35.7743958 C36.3487431,35.7743958 40.9077421,33.5454786 42.2399039,27.0997946 C42.7963252,24.4059617 42.6203282,21.4104756 40.1042481,19.8333333 M20.4002047,39.4971796 C20.9054432,36.3510445 21.5282104,32.4747598 21.5586058,32.2773316 C21.7200389,31.2473589 22.3779297,30.1230221 23.9598395,30.1230221 L27.3418301,30.1230221 C29.135832,30.1230221 30.7380053,29.922917 32.1530783,29.5213681 C35.7336521,28.5027726 38.1409648,26.1931976 39.347323,22.5230413 C40.8670911,17.903222 40.193665,15.1653282 38.4645066,13.2706869 C36.7177864,11.3559683 33.6431266,10.5 29.6721413,10.5 L18.9398764,10.5 C18.128658,10.5 17.4376701,11.0849228 17.3113604,11.878651 L12.5122704,42.0336297 C12.417707,42.6285912 12.8817429,43.1666667 13.4896502,43.1666667 L19.8112102,43.1666667" stroke="#2C2E2F" stroke-linecap="round" stroke-linejoin="round"></path>
                </g>
            </g>
        </g>
    </g>
</svg>