<?xml version="1.0" encoding="UTF-8" standalone="no"?>
<svg width="46px" height="36px" viewBox="0 0 46 36" version="1.1" xmlns="http://www.w3.org/2000/svg" xmlns:xlink="http://www.w3.org/1999/xlink">
    <defs></defs>
    <g stroke="none" stroke-width="1" fill="none" fill-rule="evenodd">
        <g transform="translate(-259.000000, -2080.000000)">
            <g transform="translate(151.000000, 2027.000000)">
                <g transform="translate(103.000000, 43.000000)">
                    <g>
                        <rect x="0" y="0" width="56" height="56"></rect>
                        <path d="M14.1023061,26.7865577 C14.048715,27.1018586 14.011345,27.3253243 14.0027212,27.3790861 C13.9786976,27.5285097 14.1177059,27.65 14.2632847,27.65 L15.8451456,27.65 C16.0609473,27.65 16.2447175,27.5036376 16.2781862,27.305044 L16.6617424,25.0772748 C16.6954164,24.8784898 16.8791866,24.7323187 17.0951936,24.7323187 L17.3676663,24.7323187 C19.1341187,24.7323187 20.5170151,24.0636436 20.9211042,22.1299384 C21.0898853,21.3217885 21.0364995,20.4231427 20.2732886,19.95 M14.2963954,25.8491539 C14.4496511,24.9053134 14.6385572,23.7424279 14.6477771,23.6831995 C14.6967451,23.3742077 14.8963053,23.0369066 15.3761513,23.0369066 L16.4020218,23.0369066 C16.9462024,23.0369066 17.432195,22.9768751 17.8614338,22.8564104 C18.9475411,22.5508318 19.6777593,21.8579593 20.043688,20.7569124 C20.5046843,19.3709666 20.3004117,18.5495985 19.7759003,17.9812061 C19.2460619,17.4067905 18.3134151,17.15 17.1088829,17.15 L13.8534292,17.15 C13.6073596,17.15 13.3977599,17.3254768 13.359446,17.5635953 L11.903722,26.6100889 C11.8750378,26.7885774 12.0157953,26.95 12.2001939,26.95 L14.1177337,26.95" stroke="#2C2E2F" stroke-linecap="round" stroke-linejoin="round"></path>
                        <path d="M10.15,34.65 L37.5306507,34.65" stroke="#2C2E2F" stroke-linecap="round"></path>
                        <path d="M10.15,39.55 L25.6925226,39.55" stroke="#2C2E2F" stroke-linecap="round"></path>
                        <path d="M14,11.5 L49.4970177,11.5 C50.0509495,11.5 50.5,11.9549243 50.5,12.4991421 L50.5,44.5008579 C50.5,45.0526688 50.0546192,45.5 49.4970177,45.5 L6.50298231,45.5 C5.94905047,45.5 5.5,45.0450757 5.5,44.5008579 L5.5,11.4991421" stroke="#2C2E2F" stroke-linecap="round"></path>
                    </g>
                </g>
            </g>
        </g>
    </g>
</svg>