<?xml version="1.0" encoding="UTF-8" standalone="no"?>
<svg width="42px" height="31px" viewBox="0 0 42 31" version="1.1" xmlns="http://www.w3.org/2000/svg" xmlns:xlink="http://www.w3.org/1999/xlink">
    <defs></defs>
    <g stroke="none" stroke-width="1" fill="none" fill-rule="evenodd">
        <g transform="translate(-845.000000, -2452.000000)">
            <g transform="translate(735.000000, 2397.000000)">
                <g transform="translate(103.000000, 43.000000)">
                    <g>
                        <rect x="0" y="0" width="56" height="56"></rect>
                        <path d="M26.5,43 L26.5,15.5 L18.3458333,15.5 C12.2819903,15.5 7.5,21.5869565 7.5,27.673913 C7.5,33.7608696 12.2829741,38.46 19,38.6304348" stroke="#2C2E2F" stroke-linecap="round"></path>
                        <path d="M19,33.5 C14.625,33.7608696 12.25,31.326087 12.25,27.5 C12.25,24.0217391 14.625,20.3695652 18.3458333,20.5 L21.5,20.5 L21.5,43" stroke="#2C2E2F" stroke-linecap="round"></path>
                        <path d="M29.5,12 L29.5,39.5 L37.6541667,39.5 C43.7180097,39.5 48.5,33.4130435 48.5,27.326087 C48.5,21.2391304 43.7170259,16.54 37,16.3695652" stroke="#2C2E2F" stroke-linecap="round"></path>
                        <path d="M37,21.5 C41.375,21.2391304 43.75,23.673913 43.75,27.5 C43.75,30.9782609 41.375,34.6304348 37.6541667,34.5 L34.5,34.5 L34.5,12" stroke="#2C2E2F" stroke-linecap="round"></path>
                    </g>
                </g>
            </g>
        </g>
    </g>
</svg>