<?xml version="1.0" encoding="UTF-8" standalone="no"?>
<svg width="48px" height="37px" viewBox="0 0 48 37" version="1.1" xmlns="http://www.w3.org/2000/svg" xmlns:xlink="http://www.w3.org/1999/xlink">
    <defs></defs>
    <g stroke="none" stroke-width="1" fill="none" fill-rule="evenodd">
        <g transform="translate(-842.000000, -222.000000)">
            <g transform="translate(735.000000, 171.000000)">
                <g transform="translate(103.000000, 44.000000)">
                    <g>
                        <g>
                            <rect x="0" y="0" width="56" height="56"></rect>
                            <path d="M4.5,13.9339167 C4.5,13.1419864 5.14652051,12.5 5.93227947,12.5 L50.0677205,12.5 C50.8587466,12.5 51.5,13.1472923 51.5,13.9339167 L51.5,21.3028195 C51.5,21.3028195 34.8269732,23.2120891 28.0000002,23.2120891 C20.4200316,23.2120891 4.5,21.3028195 4.5,21.3028195 L4.5,13.9339167 Z" stroke="#2C2E2F"></path>
                            <path d="M21.5,25.5 L34.5,25.5" stroke="#2C2E2F" stroke-linecap="round" stroke-linejoin="round"></path>
                            <path d="M20.5,10.8191941 L20.5,8.75240435 C20.6380868,7.99263664 21.2844276,7.37672322 22.0905871,7.5 L33.9094129,7.5 C34.7116066,7.37672322 35.3619132,7.98721538 35.5,8.75240435 L35.5,10.8191941" stroke="#2C2E2F" stroke-linecap="round"></path>
                            <path d="M51.5,25.6055143 L51.5,42.065868 C51.5,42.8579172 50.8534795,43.5 50.0677205,43.5 L5.93227947,43.5 C5.14125336,43.5 4.5,42.8631258 4.5,42.065868 L4.5,25.6055143" stroke="#2C2E2F" stroke-linecap="round"></path>
                        </g>
                    </g>
                </g>
            </g>
        </g>
    </g>
</svg>