<?xml version="1.0" encoding="UTF-8" standalone="no"?>
<svg width="41px" height="37px" viewBox="0 0 41 37" version="1.1" xmlns="http://www.w3.org/2000/svg" xmlns:xlink="http://www.w3.org/1999/xlink">
    <defs></defs>
    <g stroke="none" stroke-width="1" fill="none" fill-rule="evenodd">
        <g transform="translate(-552.000000, -970.000000)">
            <g transform="translate(443.000000, 917.000000)">
                <g transform="translate(95.000000, 36.000000)">
                    <g transform="translate(37.000000, 36.000000) scale(-1, 1) translate(-37.000000, -36.000000) translate(9.000000, 8.000000)">
                        <rect x="0" y="0" width="56" height="56"></rect>
                        <g transform="translate(13.000000, 9.000000)" stroke="#2C2E2F">
                            <path d="M36.9999988,0.5 L31.0000007,0.5 L25.1040424,23.3592259 L27.918649,27.4893271 L0,27.4893271" stroke-linecap="round"></path>
                            <path d="M37.5,9.5 L26.5,9.5" stroke-linecap="square"></path>
                            <path d="M30.5,15.5 L25.5,15.5" stroke-linecap="square"></path>
                            <path d="M25.1040424,23.3592259 L1.49498071,19.5209848 C0.945468036,19.4316478 0.5,18.9138015 0.5,18.3625045 L0.5,6.49672135 C0.5,5.94624735 0.94260025,5.5 1.49963022,5.5 L26,5.5" stroke-linecap="round"></path>
                        </g>
                        <ellipse stroke="#2C2E2F" cx="42.9138257" cy="41.9981442" rx="3.43555948" ry="3.44247084"></ellipse>
                        <ellipse stroke="#2C2E2F" cx="14.055126" cy="41.9981442" rx="3.43555948" ry="3.44247084"></ellipse>
                    </g>
                </g>
            </g>
        </g>
    </g>
</svg>