<?xml version="1.0" encoding="UTF-8" standalone="no"?>
<svg width="41px" height="42px" viewBox="0 0 41 42" version="1.1" xmlns="http://www.w3.org/2000/svg" xmlns:xlink="http://www.w3.org/1999/xlink">
    <defs></defs>
    <g stroke="none" stroke-width="1" fill="none" fill-rule="evenodd">
        <g transform="translate(-846.000000, -2082.000000)">
            <g transform="translate(735.000000, 2027.000000)">
                <g transform="translate(95.000000, 40.000000)">
                    <g transform="translate(8.000000, 8.000000)">
                        <rect x="0.280409001" y="0.153360775" width="56" height="56"></rect>
                        <path d="M29.6268624,17.910904 C30.5069612,19.6358423 29.8238995,21.7465583 28.0982698,22.6266571 C26.376097,23.5053732 24.2626155,22.8216201 23.3838995,21.0980645 C22.5038007,19.3752003 23.1882451,17.2631016 24.9124921,16.3843855 C26.6374303,15.5035954 28.7467637,16.1880398 29.6268624,17.910904 L29.6268624,17.910904 Z" stroke="#2C2E2F" stroke-linecap="round" stroke-linejoin="round"></path>
                        <path d="M35.0431987,11.8107492 L21.4365814,8.05114429 C20.7037419,7.84857639 19.8865567,8.26615664 19.6203839,8.97825541 L15.16389,20.9076381 C14.8977172,21.6204282 14.9627049,22.7570208 15.3083839,23.4345517 L27.3442357,47.0167739 C27.6899147,47.6936134 28.5271493,47.9653171 29.2039888,47.6196381 L47.1046308,38.4840332 C47.7814703,38.1383542 48.053174,37.3011196 47.707495,36.6235887 L37.7837419,17.1798357" stroke="#2C2E2F" stroke-linecap="round" stroke-linejoin="round"></path>
                        <path d="M16.3145091,13 L14.3634967,14.3066667 C13.7315955,14.7290864 13.1211264,15.6907654 13.0063609,16.4422716 L9.01584241,42.6163951 C8.90107698,43.3685926 9.42236093,44.0772346 10.1738671,44.192 L25.4349041,46.5184198" stroke="#2C2E2F" stroke-linecap="round" stroke-linejoin="round"></path>
                    </g>
                </g>
            </g>
        </g>
    </g>
</svg>