<?xml version="1.0" encoding="UTF-8" standalone="no"?>
<svg width="46px" height="38px" viewBox="0 0 46 38" version="1.1" xmlns="http://www.w3.org/2000/svg" xmlns:xlink="http://www.w3.org/1999/xlink">
    <defs></defs>
    <g stroke="none" stroke-width="1" fill="none" fill-rule="evenodd">
        <g transform="translate(-1135.000000, -1714.000000)">
            <g transform="translate(1027.000000, 1657.000000)">
                <g transform="translate(95.000000, 40.000000)">
                    <g transform="translate(8.000000, 8.000000)">
                        <rect x="0" y="0" width="56" height="56"></rect>
                        <path d="M19,30.9065516 L21.9363068,26.5208033 M25.8086173,26.6577427 L30.7239117,30.0665271 M34.4190415,29.3450514 L38.7682693,24" stroke="#2C2E2F"></path>
                        <ellipse stroke="#2C2E2F" cx="40.4839545" cy="22.5421072" rx="2.48395446" ry="2.54210724"></ellipse>
                        <ellipse stroke="#2C2E2F" cx="32.4839545" cy="31.5421072" rx="2.48395446" ry="2.54210724"></ellipse>
                        <ellipse stroke="#2C2E2F" cx="23.4826721" cy="24.5407948" rx="2.48267209" ry="2.54079485"></ellipse>
                        <ellipse stroke="#2C2E2F" cx="17.4826721" cy="32.5407948" rx="2.48267209" ry="2.54079485"></ellipse>
                        <path d="M14,10.5004289 L49.4970177,10.5004289 C50.0509495,10.5004289 50.5,10.9553532 50.5,11.4995711 L50.5,44.5012868 C50.5,45.0530978 50.0546192,45.5004289 49.4970177,45.5004289 L6.50298231,45.5004289 C5.94905047,45.5004289 5.5,45.0455047 5.5,44.5012868 L5.5,10.4995711" stroke="#2C2E2F" stroke-linecap="round"></path>
                    </g>
                </g>
            </g>
        </g>
    </g>
</svg>