<?xml version="1.0" encoding="UTF-8" standalone="no"?>
<svg width="42px" height="37px" viewBox="0 0 42 37" version="1.1" xmlns="http://www.w3.org/2000/svg" xmlns:xlink="http://www.w3.org/1999/xlink">
    <defs></defs>
    <g stroke="none" stroke-width="1" fill="none" fill-rule="evenodd">
        <g transform="translate(-1137.000000, -601.000000)">
            <g transform="translate(1027.000000, 547.000000)">
                <g transform="translate(103.000000, 44.000000)">
                    <g>
                        <rect x="0" y="0" width="56" height="56"></rect>
                        <path d="M31.6538332,43.6289 L9.81557167,43.6289 C9.03252928,43.6289 8.39056277,42.9989 8.39056277,42.2289 L8.39056277,13.7613 C8.39056277,12.9913 9.03252928,12.3613 9.81557167,12.3613 L44.9655539,12.3613 C45.7493088,12.3613 46.3905628,12.9913 46.3905628,13.7613 L46.3905628,29.3076 M39.2080628,14.5726 L39.2080628,10.15 M14.7955628,14.5726 L14.7955628,10.15 M46.8387628,41.223 L42.4098628,41.223 M46.8387628,45.6526 L46.8387628,41.223 M32.7708628,35.2982 C34.0413628,31.899 37.5952628,29.7857 41.2933628,30.4465 C45.1195628,31.1304 47.7711628,34.545 47.6017628,38.3243 M46.8387628,41.3385 C45.3785628,44.3464 42.0521628,46.1489 38.5983628,45.5315 C34.9086628,44.8714 32.3109628,41.6745 32.2829628,38.0576 M32.7708628,35.3528 L37.1997628,35.3528 M32.7708628,30.9239 L32.7708628,35.3528 M8.39056277,20.4113 L45.7236628,20.4113" stroke="#2C2E2F" stroke-linecap="round" stroke-linejoin="round"></path>
                    </g>
                </g>
            </g>
        </g>
    </g>
</svg>