<?xml version="1.0" encoding="UTF-8" standalone="no"?>
<svg width="47px" height="34px" viewBox="0 0 47 34" version="1.1" xmlns="http://www.w3.org/2000/svg" xmlns:xlink="http://www.w3.org/1999/xlink">
    <defs></defs>
    <g stroke="none" stroke-width="1" fill="none" fill-rule="evenodd">
        <g transform="translate(-257.000000, -224.000000)">
            <g transform="translate(151.000000, 171.000000)">
                <g transform="translate(101.000000, 42.000000)">
                    <g>
                        <rect fill-opacity="0" fill="#000000" x="0" y="0" width="56" height="56"></rect>
                        <path d="M24,39.5 L6.49464035,39.5 C5.94531565,39.5 5.5,39.0601869 5.5,38.5034652 L5.5,12.4965348 C5.5,11.9461638 5.95527816,11.5 6.50355521,11.5 L50.4964448,11.5 C51.050693,11.5 51.5,11.9398131 51.5,12.4965348 L51.5,38.5034652 C51.5,39.0538362 51.0499119,39.5 50.4912152,39.5 L46,39.5" stroke="#2C2E2F"></path>
                        <path d="M6.5,32.5 L27.5138855,32.5" stroke="#2C2E2F" stroke-linecap="square"></path>
                        <path d="M41.5,32.5 L50.5138855,32.5" stroke="#2C2E2F" stroke-linecap="square"></path>
                        <path d="M6.5,27.5 L50.5138855,27.5" stroke="#2C2E2F" stroke-linecap="square"></path>
                        <path d="M22.3732396,43.5544846 C21.6148203,44.3528207 21.9002716,45 22.9993233,45 L45.6006767,45 C46.7048725,45 46.9851875,44.3528289 46.2267604,43.5544846 L35.6732396,32.4455154 C34.9148203,31.6471793 33.6851875,31.6471711 32.9267604,32.4455154 L22.3732396,43.5544846 Z" stroke="#2C2E2F"></path>
                    </g>
                </g>
            </g>
        </g>
    </g>
</svg>