<?xml version="1.0" encoding="UTF-8" standalone="no"?>
<svg width="36px" height="45px" viewBox="0 0 36 45" version="1.1" xmlns="http://www.w3.org/2000/svg" xmlns:xlink="http://www.w3.org/1999/xlink">
    <defs></defs>
    <g stroke="none" stroke-width="1" fill="none" fill-rule="evenodd">
        <g transform="translate(-1132.000000, -2076.000000)">
            <g transform="translate(1027.000000, 2027.000000)">
                <g transform="translate(95.000000, 43.000000)">
                    <g>
                        <path d="M39.6218261,45 L45,26.8432332 L28.3933705,15.152233 L12,27.1415184 L17.1087978,45" stroke="#2C2E2F" stroke-linecap="round"></path>
                        <path d="M40.5,21 L40.5,13.2134685 L38.6295402,13.2134685 L38.6295402,9.45282593 L34.3903657,9.45282593 L34.3903657,6.5 L22.6096376,6.5 L22.6096376,9.45282593 L18.3704639,9.45282593 L18.3704639,13.2134685 L16.5,13.2134685 L16.5,21" stroke="#2C2E2F" stroke-linecap="round" stroke-linejoin="round"></path>
                        <path d="M18,27 L28.5,19 L44,29.4854593" stroke="#2C2E2F" stroke-linecap="round"></path>
                        <path d="M28.5,16 L28.5,43" stroke="#2C2E2F" stroke-linecap="round"></path>
                        <path d="M10,47.0057906 C12.1995899,47.0057906 16.0371203,49.4862743 16.0371203,49.4862743 C16.0371203,49.4862743 19.0980498,47.0057906 22.1589808,47.0057906 C25.2199118,47.0057906 28.2808351,49.4862743 28.2808351,49.4862743 C28.2808351,49.4862743 30.9474233,46.8608131 34.4026972,47.0057906 C37.8579711,47.150768 40.5245592,50 40.5245592,50 C40.5245592,50 43.1518102,47.0057906 46,47.0057906" stroke="#2C2E2F" stroke-linecap="square" transform="translate(28.000000, 48.500000) scale(-1, -1) translate(-28.000000, -48.500000) "></path>
                        <rect x="0" y="0" width="56" height="56"></rect>
                    </g>
                </g>
            </g>
        </g>
    </g>
</svg>