<?xml version="1.0" encoding="UTF-8" standalone="no"?>
<svg width="30px" height="38px" viewBox="0 0 30 38" version="1.1" xmlns="http://www.w3.org/2000/svg" xmlns:xlink="http://www.w3.org/1999/xlink">
    <defs></defs>
    <g stroke="none" stroke-width="1" fill="none" fill-rule="evenodd">
        <g transform="translate(-267.000000, -1714.000000)">
            <g transform="translate(151.000000, 1657.000000)">
                <g transform="translate(103.000000, 48.000000)">
                    <g>
                        <rect x="0" y="0" width="56" height="56"></rect>
                        <path d="M38.4988333,18.724 C38.4988333,19.152 38.0928333,19.499 37.5946667,19.499 L18.4041667,19.499 C17.9048333,19.499 17.5,19.151 17.5,18.724 L17.5,15.275 C17.5,14.847 17.906,14.5 18.4041667,14.5 L37.5946667,14.5 C38.094,14.5 38.4988333,14.848 38.4988333,15.275 L38.4988333,18.724 L38.4988333,18.724 Z" stroke="#2C2E2F"></path>
                        <path d="M22.5,26.30375 C22.5,26.96375 21.96375,27.5 21.30375,27.5 L18.69625,27.5 C18.03625,27.5 17.5,26.96375 17.5,26.30375 L17.5,23.69625 C17.5,23.03625 18.03625,22.5 18.69625,22.5 L21.30375,22.5 C21.96375,22.5 22.5,23.03625 22.5,23.69625 L22.5,26.30375 L22.5,26.30375 Z" stroke="#2C2E2F"></path>
                        <path d="M22.5,33.30375 C22.5,33.96375 21.96375,34.5 21.30375,34.5 L18.69625,34.5 C18.03625,34.5 17.5,33.96375 17.5,33.30375 L17.5,30.69625 C17.5,30.03625 18.03625,29.5 18.69625,29.5 L21.30375,29.5 C21.96375,29.5 22.5,30.03625 22.5,30.69625 L22.5,33.30375 L22.5,33.30375 Z" stroke="#2C2E2F"></path>
                        <path d="M22.5,40.30375 C22.5,40.96375 21.96375,41.5 21.30375,41.5 L18.69625,41.5 C18.03625,41.5 17.5,40.96375 17.5,40.30375 L17.5,37.69625 C17.5,37.03625 18.03625,36.5 18.69625,36.5 L21.30375,36.5 C21.96375,36.5 22.5,37.03625 22.5,37.69625 L22.5,40.30375 L22.5,40.30375 Z" stroke="#2C2E2F"></path>
                        <path d="M30.5,26.30375 C30.5,26.96375 29.96375,27.5 29.30375,27.5 L26.69625,27.5 C26.03625,27.5 25.5,26.96375 25.5,26.30375 L25.5,23.69625 C25.5,23.03625 26.03625,22.5 26.69625,22.5 L29.30375,22.5 C29.96375,22.5 30.5,23.03625 30.5,23.69625 L30.5,26.30375 L30.5,26.30375 Z" stroke="#2C2E2F"></path>
                        <path d="M30.5,33.30375 C30.5,33.96375 29.96375,34.5 29.30375,34.5 L26.69625,34.5 C26.03625,34.5 25.5,33.96375 25.5,33.30375 L25.5,30.69625 C25.5,30.03625 26.03625,29.5 26.69625,29.5 L29.30375,29.5 C29.96375,29.5 30.5,30.03625 30.5,30.69625 L30.5,33.30375 L30.5,33.30375 Z" stroke="#2C2E2F"></path>
                        <path d="M30.5,40.30375 C30.5,40.96375 29.96375,41.5 29.30375,41.5 L26.69625,41.5 C26.03625,41.5 25.5,40.96375 25.5,40.30375 L25.5,37.69625 C25.5,37.03625 26.03625,36.5 26.69625,36.5 L29.30375,36.5 C29.96375,36.5 30.5,37.03625 30.5,37.69625 L30.5,40.30375 L30.5,40.30375 Z" stroke="#2C2E2F"></path>
                        <path d="M38.5,26.30375 C38.5,26.96375 37.96375,27.5 37.30375,27.5 L34.69625,27.5 C34.03625,27.5 33.5,26.96375 33.5,26.30375 L33.5,23.69625 C33.5,23.03625 34.03625,22.5 34.69625,22.5 L37.30375,22.5 C37.96375,22.5 38.5,23.03625 38.5,23.69625 L38.5,26.30375 L38.5,26.30375 Z" stroke="#2C2E2F"></path>
                        <path d="M37.30375,41.5 L34.69625,41.5 C34.03625,41.5 33.5,40.96375 33.5,40.30375 L33.5,30.69625 C33.5,30.03625 34.03625,29.5 34.69625,29.5 L37.30375,29.5 C37.96375,29.5 38.5,30.03625 38.5,30.69625 L38.5,40.30375 C38.5,40.96375 37.96375,41.5 37.30375,41.5 Z" stroke="#2C2E2F"></path>
                        <path d="M18,9 L40.9964051,9 C42.10296,9 43,9.90185079 43,11.0028592 L43,44.9971408 C43,46.1032894 42.1021596,47 41.008383,47 L14.991617,47 C13.8916773,47 13,46.0981492 13,44.9971408 L13,9" stroke="#2C2E2F" stroke-linecap="round"></path>
                    </g>
                </g>
            </g>
        </g>
    </g>
</svg>