<?xml version="1.0" encoding="UTF-8" standalone="no"?>
<svg width="46px" height="46px" viewBox="0 0 46 46" version="1.1" xmlns="http://www.w3.org/2000/svg" xmlns:xlink="http://www.w3.org/1999/xlink">
    <defs></defs>
    <g stroke="none" stroke-width="1" fill="none" fill-rule="evenodd">
        <g transform="translate(-259.000000, -1338.000000)">
            <g transform="translate(151.000000, 1287.000000)">
                <g transform="translate(103.000000, 46.000000)">
                    <g>
                        <rect x="0" y="0" width="56" height="56"></rect>
                        <path d="M47.9086222,37.8510222 C47.9086222,37.8510222 42.2321133,40.2694689 43.7870222,33.6323556 C44.7999999,29.3084702 44.2413756,30.3223881 42.5052444,28.3111111 C40.7691133,26.2998341 38.4707891,27.7596434 37.6544,26.5278222 C36.8380109,25.296001 37.0346667,23.3383111 38.2940444,21.9569778 C39.9790222,20.1102222 41.7934222,19.9086222 43.0714667,20.1662222 C44.7477333,20.5034667 49.1144889,20.7249778 49.3160889,20.72" stroke="#2C2E2F"></path>
                        <path d="M29.4,25.1365333 C31.1537041,27.1532004 32.3164143,34.3775631 28,34.9663835 C26.8609068,35.1217721 25.1887392,45.1388481 23.8000001,44.7999998 C22.411261,44.4611515 21.8113778,37.3893331 22.4,33.5999998 C22.959768,29.9964191 17.3686102,31.0323844 16.8,29.4000001 C16.2313897,27.7676158 17.9996444,24.9859556 19.4519111,25.1365333 C19.4519111,25.1365333 27.6462958,23.1198663 29.4,25.1365333 Z" stroke="#2C2E2F"></path>
                        <path d="M12.6,12.6 C11.9885539,15.8065915 14.9333333,18.9765333 16.4888889,18.9765333 C18.0444444,18.9765333 19.1271111,24.5765333 19.1271111,24.5765333 L20.6888889,24.5765333 L22.4000003,18.2 L26.1345778,18.6666667 C26.1345778,18.6666667 26.8078222,15.5331556 27.7722667,14.7466667 C29.0241778,13.7237333 32.0295107,13.5619556 33.5999996,12.6 C35.3023996,11.5584 39.0133343,9.12924448 37.8000009,8.40000004" stroke="#2C2E2F"></path>
                        <circle stroke="#2C2E2F" cx="28.2028444" cy="28.2028444" r="22.6028444"></circle>
                    </g>
                </g>
            </g>
        </g>
    </g>
</svg>