<?xml version="1.0" encoding="UTF-8" standalone="no"?>
<svg width="50px" height="33px" viewBox="0 0 50 33" version="1.1" xmlns="http://www.w3.org/2000/svg" xmlns:xlink="http://www.w3.org/1999/xlink">
    <defs></defs>
    <g stroke="none" stroke-width="1" fill="none" fill-rule="evenodd">
        <g transform="translate(-1133.000000, -226.000000)">
            <g transform="translate(1027.000000, 171.000000)">
                <g transform="translate(103.000000, 44.000000)">
                    <g>
                        <rect x="0" y="0" width="56" height="56"></rect>
                        <path d="M31.5,16.8531061 L31.5,13.4704975 C31.5,12.372373 30.6084896,11.5 29.5087557,11.5 L5.49124431,11.5 C4.39989752,11.5 3.5,12.3795771 3.5,13.4645905 L3.5,28.2231084 C3.5,29.3114175 4.39745833,30.1876988 5.50452929,30.5000006 L6.5,30.5000006 L6.5,34.1383881 L11,30.5000006 L20.0017614,30.5" stroke="#2C2E2F" stroke-linecap="round"></path>
                        <path d="M52.4566648,35.832445 L52.4566648,22.4498364 C52.7110821,21.3517119 51.8195717,20.4793389 50.4566648,20.4793389 L26.7023264,20.4793389 C25.6109796,20.4793389 24.7110821,21.3589161 24.4566648,22.4439294 L24.4566648,37.2024473 C24.7110821,38.2907564 25.6085405,39.1670378 26.7156114,39.4793395 L27.7110821,39.4793395 L27.7110821,43.1177271 L32.2110821,39.4793395 L47.9566648,39.4793389" stroke="#2C2E2F" stroke-linecap="round" transform="translate(38.478332, 31.798533) scale(-1, 1) translate(-38.478332, -31.798533) "></path>
                        <path d="M33.3740064,29.8453981 L36.1742818,32.798533 L41.1171589,27.5397667" stroke="#2C2E2F"></path>
                        <path d="M16.4844688,22.9366914 L16.4844688,24.137622 L17.6829883,24.137622 L17.6829883,22.9366914 L16.4844688,22.9366914 Z M15.6422659,18.8253977 C15.6422659,18.5729485 15.6710589,18.338535 15.7286457,18.1221501 C15.7862325,17.9057651 15.8780101,17.7182343 16.0039813,17.559552 C16.1299524,17.4008697 16.2865142,17.274647 16.4736713,17.1808802 C16.6608284,17.0871134 16.883974,17.0402306 17.1431146,17.0402306 C17.5318256,17.0402306 17.8395505,17.1520279 18.0662985,17.3756257 C18.2930466,17.5992235 18.4208154,17.9093706 18.4496088,18.3060764 C18.4640055,18.5729511 18.4316134,18.8001519 18.3524316,18.9876856 C18.2732497,19.1752192 18.1670756,19.3465214 18.0339061,19.5015973 C17.9007366,19.6566732 17.7567718,19.804534 17.6020072,19.9451843 C17.4472427,20.0858345 17.2996787,20.2391049 17.1593108,20.405 C17.018943,20.5708951 16.900172,20.7602291 16.8029942,20.9730077 C16.7058165,21.1857862 16.6500301,21.4436411 16.6356334,21.7465801 L16.6356334,22.2550822 L17.5534186,22.2550822 L17.5534186,21.8331336 C17.5534186,21.6456 17.580412,21.4779042 17.6343996,21.3300411 C17.6883873,21.182178 17.7603697,21.0451363 17.8503491,20.9189117 C17.9403285,20.7926872 18.0411039,20.6736772 18.1526783,20.5618783 C18.2642528,20.4500794 18.3776251,20.3400854 18.4927987,20.2318929 C18.6079723,20.1164876 18.7213447,19.9974776 18.8329191,19.8748595 C18.9444935,19.7522413 19.0434694,19.618806 19.1298496,19.4745493 C19.2162298,19.3302927 19.2864127,19.1698096 19.3404003,18.9930952 C19.3943879,18.8163808 19.4213814,18.6162277 19.4213814,18.3926299 C19.4213814,18.046414 19.365595,17.7398732 19.2540205,17.4729984 C19.1424461,17.2061236 18.9858843,16.980726 18.7843305,16.7967988 C18.5827766,16.6128716 18.3434351,16.4722234 18.0662985,16.3748502 C17.789162,16.277477 17.4814371,16.2287911 17.1431146,16.2287911 C16.7688004,16.2287911 16.4304829,16.2937056 16.1281522,16.4235366 C15.8258214,16.5533676 15.5702838,16.7354888 15.3615316,16.9699059 C15.1527795,17.2043229 14.9926185,17.4802096 14.8810441,17.7975742 C14.7694697,18.1149388 14.7172824,18.4575432 14.7244808,18.8253977 L15.6422659,18.8253977 Z" fill="#2C2E2F"></path>
                    </g>
                </g>
            </g>
        </g>
    </g>
</svg>