<?xml version="1.0" encoding="UTF-8" standalone="no"?>
<svg width="38px" height="38px" viewBox="0 0 38 38" version="1.1" xmlns="http://www.w3.org/2000/svg" xmlns:xlink="http://www.w3.org/1999/xlink">
    <defs></defs>
    <g stroke="none" stroke-width="1" fill="none" fill-rule="evenodd">
        <g transform="translate(-555.000000, -224.000000)">
            <g transform="translate(443.000000, 171.000000)">
                <g transform="translate(103.000000, 44.000000)">
                    <g>
                        <rect x="0" y="0" width="56" height="56"></rect>
                        <path d="M43.4609,43.9054 C43.4336,43.2299 43.4063,42.5845 43.3804,41.965 M43.4595,43.897 C32.2539,42.6258 21.6251,46.9875 10.4202,45.7128 M10.7149,30.3821 C10.402,30.4339 10.0982,30.4906 9.8,30.555 C10.031,36.2096 10.1878,40.0484 10.4188,45.7051 M25.886,25.4954 C21.6251,25.746 17.3614,25.8048 13.0662,25.0152 L13.0662,40.1772 C20.79,41.5037 32.9042,38.591 44.7321,39.9476 C45.206,40.0148 45.6813,40.0897 46.1552,40.1772 L46.1552,25.4653 C41.9664,24.696 37.8035,24.7359 33.6469,24.9711 M29.5,9.8 L29.5,32.7684 M29.6114,9.8 L37.4864,16.6166 M29.6114,9.8 L21.7364,16.6166" stroke="#2C2E2F" stroke-linecap="round" stroke-linejoin="round"></path>
                    </g>
                </g>
            </g>
        </g>
    </g>
</svg>