<?xml version="1.0" encoding="UTF-8" standalone="no"?>
<svg width="45px" height="47px" viewBox="0 0 45 47" version="1.1" xmlns="http://www.w3.org/2000/svg" xmlns:xlink="http://www.w3.org/1999/xlink">
    <defs></defs>
    <g stroke="none" stroke-width="1" fill="none" fill-rule="evenodd">
        <g transform="translate(-844.000000, -1336.000000)">
            <g transform="translate(735.000000, 1287.000000)">
                <g transform="translate(103.000000, 44.000000)">
                    <g>
                        <rect x="0" y="0" width="56" height="56"></rect>
                        <path d="M20.6024561,26.7483069 L16.4744986,26.7483069 L15.3639208,30.1759862 C14.8524051,30.3758294 14.3633328,30.6225602 13.9016633,30.9110768 L10.6566537,29.6623448 L8.05884589,32.8703703 L10.0378256,35.9122047 C9.8627428,36.4616467 9.73658642,37.0338952 9.66465589,37.6234983 L6.61478109,39.4526063 L7.54336946,43.4747645 L11.026192,43.7765609 C11.3346481,44.2665065 11.6871576,44.7243659 12.0779508,45.1442034 L11.5734161,48.7126738 L15.2835996,50.5222512 L17.7648904,47.9485302 C18.0198487,47.9710021 18.2778613,47.9824699 18.5384773,47.9824699 C18.7990934,47.9824699 19.057106,47.9710021 19.3120643,47.9485302 L21.7933551,50.5222512 L25.5035386,48.7126738 L24.9990038,45.1442034 C25.3897971,44.7243659 25.7423066,44.2665065 26.0507627,43.7765609 L29.5335852,43.4747645 L30.4621736,39.4526063 L27.4122988,37.6234983 C27.3403683,37.0338952 27.2142119,36.4616467 27.039129,35.9122047 L29.0181088,32.8703703 L26.420301,29.6623448 L23.1752914,30.9110768 C22.7136218,30.6225602 22.2245496,30.3758294 21.7130339,30.1759862 L21.7130339,30.1759862 M18.5384773,42.2326287 C20.3914,42.2326287 21.8934905,40.6872816 21.8934905,38.7809993 C21.8934905,36.874717 20.3914,35.3293699 18.5384773,35.3293699 C16.6855547,35.3293699 15.1834642,36.874717 15.1834642,38.7809993 C15.1834642,40.6872816 16.6855547,42.2326287 18.5384773,42.2326287" stroke="#2C2E2F" stroke-linecap="round"></path>
                        <path d="M39.5225988,8.96607958 L37.8503437,5.8778125 L33.7850993,6.59462478 L33.2699431,10.0685915 C32.8202076,10.3366279 32.3979545,10.6421897 32.006708,10.9802437 M28.585187,10.3420833 L26.5839135,13.9524762 L28.9819915,16.5635612 C28.9158677,17.056851 28.8906256,17.5603499 28.9092415,18.0698073 L26.2667592,20.402335 L27.8796806,24.2021398 L31.3714284,23.923344 C31.7306315,24.2998055 32.1214234,24.6437081 32.5386414,24.951437 L32.6870479,28.4414265 L36.6550952,29.5792457 L38.6549067,26.6624129 C38.9029501,26.639684 39.1520691,26.6064723 39.4017829,26.562441 C39.6514967,26.5184097 39.8969512,26.4644148 40.1378094,26.4009372 L43.0146331,28.4578876 L46.3542208,26.0315351 L45.3000306,22.7012598 C45.5868377,22.2693923 45.8364403,21.8125708 46.0452235,21.335958 L49.4217469,20.4036923 L49.6377875,16.2813921 L46.3568949,14.9933152 C46.2001434,14.5082149 46.0042168,14.043714 45.7733657,13.6027889 L47.1337783,10.3289806 L44.0183693,7.62079688 L41.0214549,9.39070061 C40.5381821,9.20684793 40.0368858,9.06413285 39.5225988,8.96607958 L39.5225988,8.96607958 M38.4312816,21.0584543 C40.2560541,20.7366977 41.4744893,18.9965919 41.1527326,17.1718194 C40.830976,15.3470468 39.0908703,14.1286117 37.2660977,14.4503683 C35.4413252,14.772125 34.22289,16.5122307 34.5446467,18.3370032 C34.8664033,20.1617758 36.606509,21.3802109 38.4312816,21.0584543" stroke="#2C2E2F" stroke-linecap="round"></path>
                    </g>
                </g>
            </g>
        </g>
    </g>
</svg>