<?xml version="1.0" encoding="UTF-8" standalone="no"?>
<svg width="48px" height="25px" viewBox="0 0 48 25" version="1.1" xmlns="http://www.w3.org/2000/svg" xmlns:xlink="http://www.w3.org/1999/xlink">
    <defs></defs>
    <g stroke="none" stroke-width="1" fill="none" fill-rule="evenodd">
        <g transform="translate(-551.000000, -607.000000)">
            <g transform="translate(443.000000, 547.000000)">
                <g transform="translate(104.000000, 44.000000)">
                    <g>
                        <rect x="0" y="0" width="56" height="56"></rect>
                        <path d="M33.6027983,24.4648283 C33.7426994,24.4937896 33.8836767,24.5171815 34.0225017,24.5517123 C34.9329353,24.7811752 35.3720097,25.4662221 35.2471748,26.4575908 C35.1998237,26.8363159 35.12234,27.2072437 34.9662964,27.5570075 C34.6208482,28.3300523 34.0235779,28.7633584 33.223989,28.8758621 C32.7859908,28.9382403 32.3383072,28.9226458 31.8949282,28.9360125 C31.6441823,28.9438098 31.5354898,29.0384911 31.4956718,29.2946875 C31.4128073,29.8438389 31.3299428,30.3929903 31.2438498,30.9421418 C31.2180219,31.1092264 31.1405382,31.1738324 30.9748091,31.1738324 C30.6024568,31.1738324 30.2301046,31.1749463 29.8566761,31.1738324 C29.6791093,31.1738324 29.6005494,31.0780373 29.6285296,30.8998137 C29.9384645,28.8624953 30.2483993,26.8262908 30.5551057,24.7900864 C30.5777051,24.6363685 30.6594934,24.5372316 30.782176,24.4648283 L33.6027983,24.4648283 L33.6027983,24.4648283 Z M31.7604078,27.573716 C32.0434386,27.573716 32.3049461,27.5870828 32.5653775,27.5714882 C33.1389722,27.5358435 33.4209268,27.2529135 33.495182,26.6636618 C33.5554471,26.1913693 33.3832611,25.9106672 32.9560245,25.8460611 C32.7031263,25.8081886 32.4416188,25.8137581 32.1844159,25.8115303 C32.072495,25.8115303 32.0143822,25.8917309 31.9982398,26.0064623 C31.9584218,26.2782533 31.9142991,26.5500443 31.8734049,26.8218352 C31.8357392,27.0713483 31.7980735,27.3208613 31.7604078,27.573716 L31.7604078,27.573716 Z" fill="#2C2E2F"></path>
                        <path d="M16.9793138,24.4648283 C17.1106057,24.4926757 17.2429737,24.5149537 17.3721132,24.5483706 C17.9553934,24.696519 18.403077,25.0061825 18.5666538,25.6433318 C18.6376805,25.9218061 18.640909,26.2047361 18.6064718,26.4898938 C18.554816,26.9187443 18.4547328,27.3331142 18.2534904,27.715181 C17.8897474,28.4069113 17.3075435,28.7811808 16.5714482,28.8792038 C16.1452878,28.9360125 15.7115942,28.9248736 15.280053,28.9360125 C15.0013269,28.9438098 14.9066246,29.0195548 14.8625019,29.300257 C14.7817897,29.8182193 14.7053822,30.3372955 14.6214415,30.8552578 C14.5859281,31.0780373 14.472931,31.1738324 14.2576985,31.1749463 C13.9197834,31.1760602 13.5807922,31.1716046 13.241801,31.1771741 C13.1288039,31.178288 13.0448632,31.1437572 12.9867504,31.0435064 L12.9867504,30.8329798 C12.9942836,30.8184992 13.0071975,30.8051324 13.0093498,30.7884239 C13.1288039,30.0064679 13.2482579,29.2233981 13.367712,28.4414421 C13.5517358,27.2350912 13.7379119,26.0287403 13.9165549,24.8223894 C13.9413067,24.6541909 14.0112573,24.5383455 14.1565392,24.4659422 C15.0981815,24.4648283 16.0387477,24.4648283 16.9793138,24.4648283 L16.9793138,24.4648283 Z M15.1186286,27.6138163 C15.4802193,27.5881967 15.8235152,27.584855 16.1603541,27.5347296 C16.5122593,27.4823764 16.7307203,27.2451163 16.8189656,26.8886691 C16.8469458,26.7750515 16.8641644,26.6569784 16.8706214,26.5389053 C16.8932208,26.1612941 16.7285679,25.9195783 16.364825,25.858314 C16.0990128,25.8126442 15.8267436,25.8170998 15.5566268,25.8104164 C15.4511629,25.8081886 15.385517,25.879478 15.3682984,25.98864 C15.28651,26.5155135 15.2057978,27.0423869 15.1186286,27.6138163 L15.1186286,27.6138163 Z" fill="#2C2E2F"></path>
                        <path d="M42.9815558,24.728822 C42.9395854,24.9683099 42.8933105,25.206684 42.8567209,25.4472858 C42.6544023,26.7605709 42.4553123,28.0738559 42.255146,29.3882549 C42.1830431,29.8594335 42.109864,30.3306121 42.0409896,30.8017907 C42.0000955,31.0791512 41.8989362,31.1749463 41.6309717,31.1749463 C41.3479409,31.1749463 41.0638339,31.1760602 40.779727,31.1749463 C40.5957032,31.1738324 40.5225241,31.0780373 40.5515805,30.8875608 C40.7614322,29.5096697 40.9702078,28.1295508 41.1789833,26.7516597 C41.282295,26.0732962 41.3813019,25.3938188 41.4921467,24.7165691 C41.5061368,24.6285712 41.5685542,24.5505984 41.6083722,24.4670561 L42.9804796,24.4670561 C42.9815558,24.5539401 42.9815558,24.6408241 42.9815558,24.728822 L42.9815558,24.728822 Z" fill="#2C2E2F"></path>
                        <path d="M38.3013244,30.6425034 C38.0495024,30.8819913 37.7847664,31.0613288 37.4769838,31.1593518 C36.8700281,31.3531699 36.2695293,31.3487143 35.7110009,31.0056339 C35.2385655,30.7149067 35.0147237,30.2426142 34.9297068,29.6968045 C34.7446069,28.4937953 35.4398079,27.2217244 36.5235037,26.7694821 C37.0820321,26.5366775 37.6523983,26.5277663 38.2270692,26.7004204 C38.4735104,26.7739376 38.6769052,26.9187443 38.8254156,27.1805102 C38.8458627,27.0568676 38.8587767,26.9644141 38.8759953,26.8730745 C38.8975185,26.7583431 38.9642406,26.6981926 39.07939,26.6981926 C39.443133,26.6981926 39.8079521,26.6970787 40.1716951,26.6993065 C40.3245102,26.6993065 40.4041462,26.8006712 40.3804707,26.9566168 C40.2685497,27.6917891 40.1566288,28.4258475 40.0436318,29.1610198 C39.9564626,29.7268797 39.8703696,30.2938535 39.7810481,30.8597134 C39.747687,31.0735817 39.6325376,31.1727185 39.4259144,31.1738324 C39.1116749,31.1749463 38.7985116,31.1749463 38.4853482,31.1738324 C38.3088576,31.1738324 38.2302977,31.0746956 38.2582779,30.8953581 C38.2744204,30.8196131 38.2862581,30.7427541 38.3013244,30.6425034 L38.3013244,30.6425034 Z M37.3779769,30.0476821 C38.0053797,30.0454544 38.4896529,29.6333123 38.6209447,28.9905935 C38.7500842,28.3590137 38.3992552,27.8722405 37.7815379,27.8221151 C36.9776444,27.7575091 36.3061189,28.5283261 36.4514008,29.3481546 C36.5288845,29.7848024 36.8797136,30.048796 37.3779769,30.0476821 L37.3779769,30.0476821 Z" fill="#2C2E2F"></path>
                        <path d="M22.194398,27.1805102 C22.2148451,27.0557537 22.2277591,26.9744392 22.240673,26.8942386 C22.2643486,26.7550014 22.3256899,26.6981926 22.4645149,26.6981926 C22.8121154,26.6970787 23.1597159,26.6970787 23.5062403,26.6981926 C23.7010258,26.6981926 23.7709763,26.7761654 23.7429961,26.9744392 C23.6655124,27.5068821 23.583724,28.0382112 23.5030118,28.5706542 C23.3878624,29.3281044 23.2705607,30.0833269 23.1564875,30.8407771 C23.1220502,31.0657844 23.007977,31.1738324 22.7905922,31.1749463 C22.4860381,31.1760602 22.1814841,31.1749463 21.8758539,31.1749463 C21.6756876,31.1749463 21.6078894,31.0958596 21.631565,30.8897886 C21.6390981,30.820727 21.6520121,30.7516653 21.6670783,30.6436173 C21.6100417,30.6948565 21.5799092,30.7249318 21.5465481,30.7527792 C20.8664133,31.3119557 20.1087948,31.4378261 19.302749,31.123707 C18.7151642,30.8953581 18.4192195,30.3896487 18.3126794,29.7747773 C18.0995992,28.5461484 18.7775816,27.1014235 20.1227849,26.6881675 C20.566164,26.5522721 21.0170761,26.5567277 21.4658359,26.6636618 C21.757476,26.7304957 22.0136027,26.8663911 22.194398,27.1805102 L22.194398,27.1805102 Z M20.7405023,30.0476821 C21.3399249,30.0476821 21.8209696,29.668957 21.96948,29.071908 C22.0652585,28.6864995 22.0232882,28.3278245 21.7208865,28.0482363 C21.486283,27.8321402 21.1989476,27.7998372 20.8986982,27.8321402 C20.1852024,27.9078852 19.6557304,28.6887273 19.8300687,29.408305 C19.9269233,29.8070803 20.2691431,30.0476821 20.7405023,30.0476821 L20.7405023,30.0476821 Z" fill="#2C2E2F"></path>
                        <path d="M26.5722277,29.1866394 C26.8175928,28.8134838 27.0521962,28.4559227 27.2878759,28.0972478 C27.5547642,27.6917891 27.8227287,27.2863305 28.0853124,26.878644 C28.1660246,26.7550014 28.26826,26.6948509 28.413542,26.6959648 C28.7654472,26.6993065 29.1173524,26.6915092 29.4681814,26.7015343 C29.538132,26.7037621 29.6253011,26.7460902 29.6705,26.7995573 C29.7339936,26.8764162 29.6995564,26.9710975 29.6446721,27.0535259 C28.4124658,28.8936844 27.1802596,30.733843 25.9491295,32.5751154 C25.879179,32.6798217 25.7887813,32.731061 25.6596418,32.7288332 C25.2958988,32.7232637 24.9310797,32.7254915 24.5662605,32.7288332 C24.4780152,32.7288332 24.3886937,32.7165803 24.3714751,32.6241269 C24.357485,32.5483818 24.3682466,32.4447894 24.4091408,32.383525 C24.7179995,31.9179159 25.0268581,31.450079 25.3572401,31.0011783 C25.502522,30.8040185 25.5294261,30.6402756 25.4465616,30.4007876 C25.0623715,29.2835485 24.6997047,28.1585121 24.3284286,27.0357035 C24.2541734,26.8084685 24.3273524,26.6981926 24.5576512,26.6981926 L25.548797,26.6981926 C25.7694104,26.6981926 25.8641127,26.770596 25.9276063,26.9889199 C26.1299249,27.6851057 26.3311673,28.3801777 26.5324097,29.0763636 C26.5420951,29.1064388 26.5550091,29.137628 26.5722277,29.1866394 L26.5722277,29.1866394 Z" fill="#2C2E2F"></path>
                        <path d="M8.17126332,40.5 L47.6554034,40.5 C49.7787155,40.5 51.5,38.4744576 51.5,35.9575684 L51.5,21.0424316 C51.5,18.5337159 49.7715046,16.5 47.6537927,16.5 L8.34620726,16.5 C6.22200564,16.5 4.5,18.5255423 4.5,21.0424314 L4.50000002,35.9575677 C4.50000002,38.4662833 6.2226795,40.4999992 8.34176207,40.4999993 L8.17126332,40.5 Z" stroke="#2C2E2F" stroke-linecap="round"></path>
                    </g>
                </g>
            </g>
        </g>
    </g>
</svg>