<?xml version="1.0" encoding="UTF-8" standalone="no"?><svg width="313" height="244" viewBox="0 0 313 244" xmlns="http://www.w3.org/2000/svg" xmlns:xlink="http://www.w3.org/1999/xlink"><svg width="11" height="6" viewBox="0 0 11 6" id="ic_dropdown" x="302" y="191"><g transform="translate(-7 -10)" fill="none" fill-rule="evenodd"><path d="M0 0h24v24H0z"/><path d="M17.15 10.15L12.5 14.8l-4.625-4.625c-.2-.2-.525-.2-.725 0-.2.2-.2.525 0 .7l4.975 4.975c.1.1.225.15.35.15.15 0 .275-.05.375-.15l5-5c.2-.2.2-.5 0-.7-.175-.2-.5-.2-.7 0z" fill="#2C2E2F"/></g></svg><svg width="45" height="47" viewBox="0 0 45 47" id="ic_pp_api_access" x="45" y="117"><g transform="translate(-6 -5)" fill="none" fill-rule="evenodd"><path d="M0 0h56v56H0z"/><path d="M20.602 26.748h-4.128l-1.11 3.428c-.512.2-1 .447-1.462.735l-3.245-1.248L8.06 32.87l1.978 3.042c-.175.55-.3 1.122-.373 1.71l-3.05 1.83.928 4.023 3.483.302c.31.49.66.947 1.052 1.367l-.505 3.57 3.71 1.808 2.482-2.573c.255.02.513.032.773.032s.52-.01.774-.033l2.48 2.572 3.712-1.81L25 45.145c.39-.42.742-.877 1.05-1.367l3.484-.302.928-4.022-3.05-1.83c-.072-.59-.198-1.16-.373-1.71l1.978-3.043-2.598-3.208-3.245 1.25c-.46-.29-.95-.536-1.462-.736m-3.175 12.057c1.853 0 3.355-1.546 3.355-3.452 0-1.905-1.502-3.45-3.355-3.45-1.852 0-3.355 1.545-3.355 3.45 0 1.907 1.503 3.453 3.355 3.453M39.523 8.966L37.85 5.878l-4.065.717-.515 3.474c-.45.267-.872.572-1.263.91m-3.422-.638l-2 3.61 2.397 2.612c-.066.493-.09.996-.073 1.506l-2.643 2.332 1.613 3.8 3.49-.28c.36.378.75.722 1.17 1.03l.147 3.49 3.968 1.137 2-2.918c.248-.022.497-.056.747-.1.25-.044.495-.098.736-.16l2.877 2.056 3.34-2.426-1.055-3.33c.287-.433.536-.89.745-1.366l3.377-.932.216-4.123-3.28-1.287c-.158-.485-.354-.95-.585-1.39l1.36-3.274-3.115-2.71-2.997 1.77c-.482-.183-.983-.326-1.497-.424M38.43 21.058c1.826-.32 3.044-2.06 2.723-3.886-.322-1.825-2.062-3.043-3.887-2.722-1.825.322-3.043 2.062-2.72 3.887.32 1.825 2.06 3.043 3.885 2.72" stroke="#2C2E2F" stroke-linecap="round"/></g></svg><svg width="48" height="31" viewBox="0 0 48 31" id="ic_pp_billing" x="50" y="25"><g transform="translate(-4 -13)" fill="none" fill-rule="evenodd"><path d="M0 0h56v56H0z"/><path d="M4 13.5h47.5v30h-47V17M9.5 17.5h13M9.5 21.5h13M9.5 33.5h37M9.5 38.5h37" stroke="#2C2E2F" stroke-linecap="round"/><path stroke="#2C2E2F" d="M40.5 17.5h6v6h-6z"/></g></svg><svg width="45" height="47" viewBox="0 0 45 47" id="ic_pp_bpi_optimizer" x="45" y="70"><g transform="translate(-6 -5)" fill="none" fill-rule="evenodd"><path d="M0 0h56v56H0z"/><path d="M20.602 26.748h-4.128l-1.11 3.428c-.512.2-1 .447-1.462.735l-3.245-1.248L8.06 32.87l1.978 3.042c-.175.55-.3 1.122-.373 1.71l-3.05 1.83.928 4.023 3.483.302c.31.49.66.947 1.052 1.367l-.505 3.57 3.71 1.808 2.482-2.573c.255.02.513.032.773.032s.52-.01.774-.033l2.48 2.572 3.712-1.81L25 45.145c.39-.42.742-.877 1.05-1.367l3.484-.302.928-4.022-3.05-1.83c-.072-.59-.198-1.16-.373-1.71l1.978-3.043-2.598-3.208-3.245 1.25c-.46-.29-.95-.536-1.462-.736m-3.175 12.057c1.853 0 3.355-1.546 3.355-3.452 0-1.905-1.502-3.45-3.355-3.45-1.852 0-3.355 1.545-3.355 3.45 0 1.907 1.503 3.453 3.355 3.453M39.523 8.966L37.85 5.878l-4.065.717-.515 3.474c-.45.267-.872.572-1.263.91m-3.422-.638l-2 3.61 2.397 2.612c-.066.493-.09.996-.073 1.506l-2.643 2.332 1.613 3.8 3.49-.28c.36.378.75.722 1.17 1.03l.147 3.49 3.968 1.137 2-2.918c.248-.022.497-.056.747-.1.25-.044.495-.098.736-.16l2.877 2.056 3.34-2.426-1.055-3.33c.287-.433.536-.89.745-1.366l3.377-.932.216-4.123-3.28-1.287c-.158-.485-.354-.95-.585-1.39l1.36-3.274-3.115-2.71-2.997 1.77c-.482-.183-.983-.326-1.497-.424M38.43 21.058c1.826-.32 3.044-2.06 2.723-3.886-.322-1.825-2.062-3.043-3.887-2.722-1.825.322-3.043 2.062-2.72 3.887.32 1.825 2.06 3.043 3.885 2.72" stroke="#2C2E2F" stroke-linecap="round"/></g></svg><svg width="48" height="37" viewBox="0 0 48 37" id="ic_pp_business_resource_center" y="33"><g transform="translate(-4 -7)" fill="none" fill-rule="evenodd"><path d="M0 0h56v56H0z"/><path d="M4.5 13.934c0-.792.647-1.434 1.432-1.434h44.136c.79 0 1.432.647 1.432 1.434v7.37S34.827 23.21 28 23.21c-7.58 0-23.5-1.91-23.5-1.91v-7.368z" stroke="#2C2E2F"/><path d="M21.5 25.5h13" stroke="#2C2E2F" stroke-linecap="round" stroke-linejoin="round"/><path d="M20.5 10.82V8.75c.138-.76.784-1.375 1.59-1.252h11.82c.802-.123 1.452.487 1.59 1.252v2.067M51.5 25.606v16.46c0 .792-.647 1.434-1.432 1.434H5.932c-.79 0-1.432-.637-1.432-1.434v-16.46" stroke="#2C2E2F" stroke-linecap="round"/></g></svg><svg width="45" height="47" viewBox="0 0 45 47" id="ic_pp_business_setup" x="143" y="34"><g transform="translate(-6 -5)" fill="none" fill-rule="evenodd"><path d="M0 0h56v56H0z"/><path d="M20.602 26.748h-4.128l-1.11 3.428c-.512.2-1 .447-1.462.735l-3.245-1.248L8.06 32.87l1.978 3.042c-.175.55-.3 1.122-.373 1.71l-3.05 1.83.928 4.023 3.483.302c.31.49.66.947 1.052 1.367l-.505 3.57 3.71 1.808 2.482-2.573c.255.02.513.032.773.032s.52-.01.774-.033l2.48 2.572 3.712-1.81L25 45.145c.39-.42.742-.877 1.05-1.367l3.484-.302.928-4.022-3.05-1.83c-.072-.59-.198-1.16-.373-1.71l1.978-3.043-2.598-3.208-3.245 1.25c-.46-.29-.95-.536-1.462-.736m-3.175 12.057c1.853 0 3.355-1.546 3.355-3.452 0-1.905-1.502-3.45-3.355-3.45-1.852 0-3.355 1.545-3.355 3.45 0 1.907 1.503 3.453 3.355 3.453M39.523 8.966L37.85 5.878l-4.065.717-.515 3.474c-.45.267-.872.572-1.263.91m-3.422-.638l-2 3.61 2.397 2.612c-.066.493-.09.996-.073 1.506l-2.643 2.332 1.613 3.8 3.49-.28c.36.378.75.722 1.17 1.03l.147 3.49 3.968 1.137 2-2.918c.248-.022.497-.056.747-.1.25-.044.495-.098.736-.16l2.877 2.056 3.34-2.426-1.055-3.33c.287-.433.536-.89.745-1.366l3.377-.932.216-4.123-3.28-1.287c-.158-.485-.354-.95-.585-1.39l1.36-3.274-3.115-2.71-2.997 1.77c-.482-.183-.983-.326-1.497-.424M38.43 21.058c1.826-.32 3.044-2.06 2.723-3.886-.322-1.825-2.062-3.043-3.887-2.722-1.825.322-3.043 2.062-2.72 3.887.32 1.825 2.06 3.043 3.885 2.72" stroke="#2C2E2F" stroke-linecap="round"/></g></svg><svg width="48" height="25" viewBox="0 0 48 25" id="ic_pp_buttons" x="50"><g transform="translate(-4 -16)" fill="none" fill-rule="evenodd"><path d="M0 0h56v56H0z"/><path d="M33.603 24.465c.14.03.28.052.42.087.91.23 1.35.914 1.224 1.906-.047.378-.125.75-.28 1.1-.346.772-.943 1.205-1.743 1.318-.438.062-.886.047-1.33.06-.25.008-.36.102-.398.36-.083.548-.166 1.097-.252 1.646-.026.167-.103.232-.27.232h-1.117c-.178 0-.256-.096-.228-.274.308-2.038.618-4.074.925-6.11.023-.154.104-.253.227-.325h2.82zm-1.843 3.11c.283 0 .545.012.805-.004.574-.034.856-.317.93-.906.06-.473-.112-.753-.54-.818-.252-.038-.513-.032-.77-.034-.113 0-.17.08-.187.194-.04.272-.084.544-.125.816l-.113.752zM16.98 24.465c.13.028.263.05.392.083.583.15 1.03.458 1.195 1.095.07.28.074.562.04.847-.052.43-.152.843-.354 1.225-.363.692-.945 1.066-1.682 1.164-.425.056-.858.045-1.29.056-.28.008-.373.084-.417.364-.08.518-.158 1.037-.242 1.555-.034.223-.147.32-.362.32-.338 0-.677-.003-1.016.002-.113 0-.197-.033-.255-.133v-.21c.007-.016.02-.03.022-.046l.358-2.347c.184-1.205.37-2.41.55-3.618.023-.168.093-.284.24-.356h2.82zm-1.86 3.15c.36-.027.704-.03 1.04-.08.352-.053.57-.29.66-.646.027-.115.044-.233.05-.35.023-.38-.14-.62-.505-.682-.266-.045-.538-.04-.808-.048-.106-.002-.17.07-.19.18l-.248 1.624zM42.982 24.73c-.042.238-.09.477-.125.717-.203 1.314-.402 2.627-.602 3.94-.072.472-.145.944-.214 1.415-.04.277-.14.373-.41.373h-.85c-.184 0-.257-.097-.228-.287.21-1.378.418-2.758.627-4.136.102-.68.2-1.358.312-2.035.014-.088.077-.166.116-.25h1.372c.002.087.002.174.002.262zM38.3 30.643c-.25.24-.515.418-.823.516-.607.193-1.207.19-1.766-.154-.47-.29-.695-.763-.78-1.31-.185-1.202.51-2.474 1.594-2.927.558-.233 1.128-.242 1.703-.07.247.074.45.22.598.48.02-.123.034-.216.05-.307.023-.115.09-.175.204-.175h1.092c.153 0 .232.103.208.26-.11.734-.223 1.468-.336 2.203-.088.567-.174 1.134-.263 1.7-.032.214-.147.313-.354.314h-.94c-.177 0-.256-.1-.228-.28.016-.074.028-.15.043-.25zm-.922-.595c.627-.003 1.112-.415 1.243-1.057.13-.63-.22-1.118-.838-1.168-.804-.064-1.476.706-1.33 1.526.077.437.428.7.926.7zM22.194 27.18l.047-.286c.024-.14.086-.196.225-.196h1.04c.196 0 .266.078.238.276-.077.533-.16 1.064-.24 1.597l-.347 2.27c-.034.226-.148.334-.365.335h-.914c-.2 0-.268-.08-.244-.285.007-.07.02-.138.035-.246-.057.05-.087.08-.12.11-.68.558-1.438.684-2.244.37-.588-.23-.884-.734-.99-1.35-.213-1.228.465-2.673 1.81-3.086.443-.136.894-.13 1.343-.024.29.066.548.202.728.517zM20.74 30.05c.6 0 1.08-.38 1.23-.976.095-.386.053-.744-.25-1.024-.234-.216-.52-.248-.82-.216-.715.076-1.244.857-1.07 1.576.097.4.44.64.91.64zM26.572 29.187l.716-1.09c.267-.405.535-.81.797-1.218.08-.125.183-.185.33-.184.35.003.702-.004 1.053.006.07.002.157.044.203.098.064.076.03.17-.025.254l-3.696 5.52c-.07.106-.16.157-.29.155-.364-.007-.73-.005-1.094 0-.088 0-.177-.013-.195-.106-.013-.076-.002-.18.04-.24.308-.466.617-.934.947-1.383.146-.196.172-.36.09-.6-.385-1.116-.747-2.24-1.12-3.364-.073-.228 0-.338.23-.338h.992c.22 0 .314.073.378.29l.604 2.088.04.11z" fill="#2C2E2F"/><path d="M8.17 40.5h39.485c2.124 0 3.845-2.026 3.845-4.542V21.042c0-2.508-1.728-4.542-3.846-4.542H8.346c-2.124 0-3.846 2.026-3.846 4.542v14.916c0 2.508 1.723 4.542 3.842 4.542h-.17z" stroke="#2C2E2F" stroke-linecap="round"/></g></svg><svg width="36" height="45" viewBox="0 0 36 45" id="ic_pp_cross_border_trade" x="236"><g transform="translate(-10 -6)" fill="none" fill-rule="evenodd"><path d="M39.622 45L45 26.843l-16.607-11.69L12 27.142 17.11 45" stroke="#2C2E2F" stroke-linecap="round"/><path d="M40.5 21v-7.787h-1.87v-3.76h-4.24V6.5H22.61v2.953h-4.24v3.76H16.5V21" stroke="#2C2E2F" stroke-linecap="round" stroke-linejoin="round"/><path d="M18 27l10.5-8L44 29.485M28.5 16v27" stroke="#2C2E2F" stroke-linecap="round"/><path d="M46 49.994c-2.2 0-6.037-2.48-6.037-2.48s-3.06 2.48-6.122 2.48c-3.06 0-6.12-2.48-6.12-2.48s-2.667 2.625-6.123 2.48C18.142 49.85 15.475 47 15.475 47S12.848 49.994 10 49.994" stroke="#2C2E2F" stroke-linecap="square"/><path d="M0 0h56v56H0z"/></g></svg><svg width="45" height="47" viewBox="0 0 45 47" id="ic_pp_currency_calculator" y="70"><g transform="translate(-6 -5)" fill="none" fill-rule="evenodd"><path d="M0 0h56v56H0z"/><path d="M20.602 26.748h-4.128l-1.11 3.428c-.512.2-1 .447-1.462.735l-3.245-1.248L8.06 32.87l1.978 3.042c-.175.55-.3 1.122-.373 1.71l-3.05 1.83.928 4.023 3.483.302c.31.49.66.947 1.052 1.367l-.505 3.57 3.71 1.808 2.482-2.573c.255.02.513.032.773.032s.52-.01.774-.033l2.48 2.572 3.712-1.81L25 45.145c.39-.42.742-.877 1.05-1.367l3.484-.302.928-4.022-3.05-1.83c-.072-.59-.198-1.16-.373-1.71l1.978-3.043-2.598-3.208-3.245 1.25c-.46-.29-.95-.536-1.462-.736m-3.175 12.057c1.853 0 3.355-1.546 3.355-3.452 0-1.905-1.502-3.45-3.355-3.45-1.852 0-3.355 1.545-3.355 3.45 0 1.907 1.503 3.453 3.355 3.453M39.523 8.966L37.85 5.878l-4.065.717-.515 3.474c-.45.267-.872.572-1.263.91m-3.422-.638l-2 3.61 2.397 2.612c-.066.493-.09.996-.073 1.506l-2.643 2.332 1.613 3.8 3.49-.28c.36.378.75.722 1.17 1.03l.147 3.49 3.968 1.137 2-2.918c.248-.022.497-.056.747-.1.25-.044.495-.098.736-.16l2.877 2.056 3.34-2.426-1.055-3.33c.287-.433.536-.89.745-1.366l3.377-.932.216-4.123-3.28-1.287c-.158-.485-.354-.95-.585-1.39l1.36-3.274-3.115-2.71-2.997 1.77c-.482-.183-.983-.326-1.497-.424M38.43 21.058c1.826-.32 3.044-2.06 2.723-3.886-.322-1.825-2.062-3.043-3.887-2.722-1.825.322-3.043 2.062-2.72 3.887.32 1.825 2.06 3.043 3.885 2.72" stroke="#2C2E2F" stroke-linecap="round"/></g></svg><svg width="46" height="36" viewBox="0 0 46 36" id="ic_pp_debitcard" x="143" y="81"><g transform="translate(-5 -10)" fill="none" fill-rule="evenodd"><path d="M0 0h56v56H0z"/><path d="M14.102 26.787l-.1.592c-.023.15.116.27.26.27h1.583c.216 0 .4-.146.433-.345l.384-2.228c.033-.2.217-.345.433-.345h.273c1.766 0 3.15-.668 3.553-2.602.17-.808.116-1.707-.647-2.18m-5.977 5.9l.352-2.167c.05-.31.248-.646.728-.646h1.026c.544 0 1.03-.06 1.46-.18 1.086-.306 1.816-1 2.182-2.1.46-1.386.256-2.207-.268-2.776-.53-.573-1.463-.83-2.667-.83h-3.257c-.246 0-.455.175-.494.414l-1.456 9.046c-.03.18.112.34.296.34h1.918" stroke="#2C2E2F" stroke-linecap="round" stroke-linejoin="round"/><path d="M10.15 34.65h27.38M10.15 39.55h15.543M14 11.5h35.497c.554 0 1.003.455 1.003 1v32c0 .553-.445 1-1.003 1H6.503c-.554 0-1.003-.455-1.003-1v-33" stroke="#2C2E2F" stroke-linecap="round"/></g></svg><svg width="45" height="47" viewBox="0 0 45 47" id="ic_pp_dev_site" x="98"><g transform="translate(-6 -5)" fill="none" fill-rule="evenodd"><path d="M0 0h56v56H0z"/><path d="M20.602 26.748h-4.128l-1.11 3.428c-.512.2-1 .447-1.462.735l-3.245-1.248L8.06 32.87l1.978 3.042c-.175.55-.3 1.122-.373 1.71l-3.05 1.83.928 4.023 3.483.302c.31.49.66.947 1.052 1.367l-.505 3.57 3.71 1.808 2.482-2.573c.255.02.513.032.773.032s.52-.01.774-.033l2.48 2.572 3.712-1.81L25 45.145c.39-.42.742-.877 1.05-1.367l3.484-.302.928-4.022-3.05-1.83c-.072-.59-.198-1.16-.373-1.71l1.978-3.043-2.598-3.208-3.245 1.25c-.46-.29-.95-.536-1.462-.736m-3.175 12.057c1.853 0 3.355-1.546 3.355-3.452 0-1.905-1.502-3.45-3.355-3.45-1.852 0-3.355 1.545-3.355 3.45 0 1.907 1.503 3.453 3.355 3.453M39.523 8.966L37.85 5.878l-4.065.717-.515 3.474c-.45.267-.872.572-1.263.91m-3.422-.638l-2 3.61 2.397 2.612c-.066.493-.09.996-.073 1.506l-2.643 2.332 1.613 3.8 3.49-.28c.36.378.75.722 1.17 1.03l.147 3.49 3.968 1.137 2-2.918c.248-.022.497-.056.747-.1.25-.044.495-.098.736-.16l2.877 2.056 3.34-2.426-1.055-3.33c.287-.433.536-.89.745-1.366l3.377-.932.216-4.123-3.28-1.287c-.158-.485-.354-.95-.585-1.39l1.36-3.274-3.115-2.71-2.997 1.77c-.482-.183-.983-.326-1.497-.424M38.43 21.058c1.826-.32 3.044-2.06 2.723-3.886-.322-1.825-2.062-3.043-3.887-2.722-1.825.322-3.043 2.062-2.72 3.887.32 1.825 2.06 3.043 3.885 2.72" stroke="#2C2E2F" stroke-linecap="round"/></g></svg><svg width="41" height="37" viewBox="0 0 41 37" id="ic_pp_express_checkout" x="83" y="202"><g transform="matrix(-1 0 0 1 51 -9)" fill="none" fill-rule="evenodd"><path d="M0 0h56v56H0z"/><g transform="translate(13 9)" stroke="#2C2E2F"><path d="M37 .5h-6l-5.896 22.86 2.815 4.13H0" stroke-linecap="round"/><path d="M37.5 9.5h-11M30.5 15.5h-5" stroke-linecap="square"/><path d="M25.104 23.36l-23.61-3.84C.945 19.433.5 18.915.5 18.364V6.497c0-.55.443-.997 1-.997H26" stroke-linecap="round"/></g><ellipse stroke="#2C2E2F" cx="42.914" cy="41.998" rx="3.436" ry="3.442"/><ellipse stroke="#2C2E2F" cx="14.055" cy="41.998" rx="3.436" ry="3.442"/></g></svg><svg width="45" height="47" viewBox="0 0 45 47" id="ic_pp_express_invoice" x="90" y="70"><g transform="translate(-6 -5)" fill="none" fill-rule="evenodd"><path d="M0 0h56v56H0z"/><path d="M20.602 26.748h-4.128l-1.11 3.428c-.512.2-1 .447-1.462.735l-3.245-1.248L8.06 32.87l1.978 3.042c-.175.55-.3 1.122-.373 1.71l-3.05 1.83.928 4.023 3.483.302c.31.49.66.947 1.052 1.367l-.505 3.57 3.71 1.808 2.482-2.573c.255.02.513.032.773.032s.52-.01.774-.033l2.48 2.572 3.712-1.81L25 45.145c.39-.42.742-.877 1.05-1.367l3.484-.302.928-4.022-3.05-1.83c-.072-.59-.198-1.16-.373-1.71l1.978-3.043-2.598-3.208-3.245 1.25c-.46-.29-.95-.536-1.462-.736m-3.175 12.057c1.853 0 3.355-1.546 3.355-3.452 0-1.905-1.502-3.45-3.355-3.45-1.852 0-3.355 1.545-3.355 3.45 0 1.907 1.503 3.453 3.355 3.453M39.523 8.966L37.85 5.878l-4.065.717-.515 3.474c-.45.267-.872.572-1.263.91m-3.422-.638l-2 3.61 2.397 2.612c-.066.493-.09.996-.073 1.506l-2.643 2.332 1.613 3.8 3.49-.28c.36.378.75.722 1.17 1.03l.147 3.49 3.968 1.137 2-2.918c.248-.022.497-.056.747-.1.25-.044.495-.098.736-.16l2.877 2.056 3.34-2.426-1.055-3.33c.287-.433.536-.89.745-1.366l3.377-.932.216-4.123-3.28-1.287c-.158-.485-.354-.95-.585-1.39l1.36-3.274-3.115-2.71-2.997 1.77c-.482-.183-.983-.326-1.497-.424M38.43 21.058c1.826-.32 3.044-2.06 2.723-3.886-.322-1.825-2.062-3.043-3.887-2.722-1.825.322-3.043 2.062-2.72 3.887.32 1.825 2.06 3.043 3.885 2.72" stroke="#2C2E2F" stroke-linecap="round"/></g></svg><svg width="47" height="34" viewBox="0 0 47 34" id="ic_pp_here" x="143"><g transform="translate(-5 -11)" fill="none" fill-rule="evenodd"><path fill-opacity="0" fill="#000" d="M0 0h56v56H0z"/><path d="M24 39.5H6.495c-.55 0-.995-.44-.995-.997V12.497c0-.55.455-.997 1.004-.997h43.992c.555 0 1.004.44 1.004.997v26.006c0 .55-.45.997-1.01.997H46" stroke="#2C2E2F"/><path d="M6.5 32.5h21.014M41.5 32.5h9.014M6.5 27.5h44.014" stroke="#2C2E2F" stroke-linecap="square"/><path d="M22.373 43.554C21.615 44.354 21.9 45 23 45h22.6c1.105 0 1.385-.647.627-1.446L35.673 32.446c-.758-.8-1.988-.8-2.746 0L22.373 43.554z" stroke="#2C2E2F"/></g></svg><svg width="45" height="35" viewBox="0 0 45 35" id="ic_pp_hosted_sole_solution" x="46" y="164"><g transform="translate(-6 -11)" fill="none" fill-rule="evenodd"><path d="M0 0h56v56H0z"/><path d="M14 11.5h35.52c.54 0 .98.442.98.97v32.06c0 .536-.435.97-.98.97H7.48c-.54 0-.98-.44-.98-.97V12M7 39.5h42.944M11.49 16.5h38.295" stroke="#2C2E2F" stroke-linecap="round"/><path d="M22.1 28.365l3.783 3.937 7.887-8.21" stroke="#2C2E2F"/></g></svg><svg width="33" height="39" viewBox="0 0 33 39" id="ic_pp_invoicing" x="272" y="114"><g transform="translate(-11 -7)" fill="none" fill-rule="evenodd"><path d="M0 0h56v56H0z"/><path d="M11.5 45.38V7.5h31.04v37.88M37 22.5H25m12-7H17m-5.5 29.88l3.72-3.95 3.916 3.95 3.915-3.95 4 3.95 3.916-3.95 3.914 3.95 3.915-3.95 3.745 3.95" stroke="#2C2E2F" stroke-linecap="round" stroke-linejoin="round"/></g></svg><svg width="31" height="36" viewBox="0 0 31 36" id="ic_pp_logo_center" x="236" y="45"><g transform="translate(-12 -10)" fill="none" fill-rule="evenodd"><path d="M0 0h56v56H0z"/><path d="M19.76 42.622c-.176 1.05-.3 1.796-.328 1.975-.08.498.38.903.86.903h5.214c.71 0 1.317-.488 1.428-1.15l1.264-7.426c.11-.662.717-1.15 1.43-1.15h.897c5.824 0 10.383-2.23 11.715-8.674.556-2.694.38-5.69-2.136-7.267M20.4 39.497l1.16-7.22c.16-1.03.818-2.154 2.4-2.154h3.382c1.794 0 3.396-.2 4.81-.602 3.582-1.017 5.99-3.327 7.195-6.997 1.52-4.62.847-7.358-.882-9.252-1.747-1.914-4.822-2.77-8.793-2.77H18.94c-.81 0-1.502.585-1.63 1.38l-4.798 30.154c-.094.595.37 1.133.978 1.133h6.32" stroke="#2C2E2F" stroke-linecap="round" stroke-linejoin="round"/></g></svg><svg width="46" height="37" viewBox="0 0 46 37" id="ic_pp_manage_fraud_filters" x="190" y="75"><g transform="translate(-5 -9)" fill="none" fill-rule="evenodd"><path d="M0 0h56v56H0z"/><path d="M14 10.5h35.497c.554 0 1.003.455 1.003 1v33c0 .553-.445 1-1.003 1H6.503c-.554 0-1.003-.455-1.003-1v-34" stroke="#2C2E2F" stroke-linecap="round"/><path d="M28 41s9.8-1 9.8-15.09L28 20.6l-9.8 5.31C18.2 40 28 41 28 41z" stroke="#2C2E2F"/><path d="M11 16.5h39.5" stroke="#2C2E2F" stroke-linecap="round"/><path d="M28 21.5v19.095" stroke="#2C2E2F" stroke-linecap="square"/></g></svg><svg width="46" height="46" viewBox="0 0 46 46" id="ic_pp_masspay" x="190" y="112"><g transform="translate(-5 -5)" fill="none" fill-rule="evenodd"><path d="M0 0h56v56H0z"/><path d="M47.91 37.85s-5.678 2.42-4.123-4.218c1.013-4.324.454-3.31-1.282-5.32-1.736-2.012-4.034-.552-4.85-1.784-.817-1.232-.62-3.19.64-4.57 1.684-1.848 3.498-2.05 4.776-1.792 1.678.337 6.044.56 6.246.554" stroke="#2C2E2F"/><path d="M29.4 25.137c1.754 2.016 2.916 9.24-1.4 9.83-1.14.155-2.81 10.172-4.2 9.833-1.39-.34-1.99-7.41-1.4-11.2.56-3.604-5.03-2.568-5.6-4.2-.57-1.632 1.2-4.414 2.652-4.263 0 0 8.194-2.017 9.948 0zM12.6 12.6c-.61 3.207 2.333 6.377 3.89 6.377 1.554 0 2.637 5.6 2.637 5.6h1.562L22.4 18.2l3.735.467s.673-3.134 1.637-3.92c1.252-1.023 4.258-1.185 5.828-2.147 1.702-1.042 5.413-3.47 4.2-4.2" stroke="#2C2E2F"/><circle stroke="#2C2E2F" cx="28.203" cy="28.203" r="22.603"/></g></svg><svg width="47" height="38" viewBox="0 0 47 38" id="ic_pp_multi_order_shipping" x="90" y="117"><g transform="translate(-5 -9)" fill="none" fill-rule="evenodd"><path d="M0 0h56v56H0z"/><circle stroke="#2C2E2F" cx="12.6" cy="42" r="4.2"/><circle stroke="#2C2E2F" cx="42" cy="42" r="4.2"/><path d="M37.5 20.5h9.333l3.537 5.168c.624.91 1.13 2.54 1.13 3.652v6.18h-4M5.5 35.52V9.5h32v26.02h-19" stroke="#2C2E2F" stroke-linecap="round"/></g></svg><svg width="45" height="47" viewBox="0 0 45 47" id="ic_pp_pos" y="117"><g transform="translate(-6 -5)" fill="none" fill-rule="evenodd"><path d="M0 0h56v56H0z"/><path d="M20.602 26.748h-4.128l-1.11 3.428c-.512.2-1 .447-1.462.735l-3.245-1.248L8.06 32.87l1.978 3.042c-.175.55-.3 1.122-.373 1.71l-3.05 1.83.928 4.023 3.483.302c.31.49.66.947 1.052 1.367l-.505 3.57 3.71 1.808 2.482-2.573c.255.02.513.032.773.032s.52-.01.774-.033l2.48 2.572 3.712-1.81L25 45.145c.39-.42.742-.877 1.05-1.367l3.484-.302.928-4.022-3.05-1.83c-.072-.59-.198-1.16-.373-1.71l1.978-3.043-2.598-3.208-3.245 1.25c-.46-.29-.95-.536-1.462-.736m-3.175 12.057c1.853 0 3.355-1.546 3.355-3.452 0-1.905-1.502-3.45-3.355-3.45-1.852 0-3.355 1.545-3.355 3.45 0 1.907 1.503 3.453 3.355 3.453M39.523 8.966L37.85 5.878l-4.065.717-.515 3.474c-.45.267-.872.572-1.263.91m-3.422-.638l-2 3.61 2.397 2.612c-.066.493-.09.996-.073 1.506l-2.643 2.332 1.613 3.8 3.49-.28c.36.378.75.722 1.17 1.03l.147 3.49 3.968 1.137 2-2.918c.248-.022.497-.056.747-.1.25-.044.495-.098.736-.16l2.877 2.056 3.34-2.426-1.055-3.33c.287-.433.536-.89.745-1.366l3.377-.932.216-4.123-3.28-1.287c-.158-.485-.354-.95-.585-1.39l1.36-3.274-3.115-2.71-2.997 1.77c-.482-.183-.983-.326-1.497-.424M38.43 21.058c1.826-.32 3.044-2.06 2.723-3.886-.322-1.825-2.062-3.043-3.887-2.722-1.825.322-3.043 2.062-2.72 3.887.32 1.825 2.06 3.043 3.885 2.72" stroke="#2C2E2F" stroke-linecap="round"/></g></svg><svg width="46" height="37" viewBox="0 0 46 37" id="ic_pp_promote_financing" x="190"><g transform="translate(-5 -9)" fill="none" fill-rule="evenodd"><path d="M0 0h56v56H0z"/><path d="M14 10.5h35.497c.554 0 1.003.455 1.003 1v33c0 .553-.445 1-1.003 1H6.503c-.554 0-1.003-.455-1.003-1v-34M12.913 37.595l7.446-11.058 10.565 6.758 11.672-14.92M34.757 19.948l7.81-1.98-.32 8.184" stroke="#2C2E2F" stroke-linecap="round"/></g></svg><svg width="42" height="31" viewBox="0 0 42 31" id="ic_pp_quickBook" x="91" y="164"><g transform="translate(-7 -12)" fill="none" fill-rule="evenodd"><path d="M0 0h56v56H0z"/><path d="M26.5 43V15.5h-8.154C12.282 15.5 7.5 21.587 7.5 27.674S12.283 38.46 19 38.63M19 33.5c-4.375.26-6.75-2.174-6.75-6 0-3.478 2.375-7.13 6.096-7H21.5V43M29.5 12v27.5h8.154c6.064 0 10.846-6.087 10.846-12.174S43.717 16.54 37 16.37M37 21.5c4.375-.26 6.75 2.174 6.75 6 0 3.478-2.375 7.13-6.096 7H34.5V12" stroke="#2C2E2F" stroke-linecap="round"/></g></svg><svg width="42" height="37" viewBox="0 0 42 37" id="ic_pp_recurring_payments" x="41" y="202"><g transform="translate(-7 -10)" fill="none" fill-rule="evenodd"><path d="M0 0h56v56H0z"/><path d="M31.654 43.63H9.816c-.783 0-1.425-.63-1.425-1.4V13.76c0-.77.643-1.4 1.426-1.4h35.15c.783 0 1.425.63 1.425 1.4V29.31M39.21 14.573V10.15m-24.412 4.423V10.15M46.84 41.223h-4.43m4.43 4.43v-4.43m-14.07-5.925c1.27-3.4 4.825-5.512 8.523-4.852 3.827.684 6.478 4.1 6.31 7.878m-.764 3.015c-1.46 3.006-4.788 4.81-8.242 4.19-3.69-.66-6.287-3.855-6.315-7.472m.488-2.705h4.43m-4.43-4.43v4.43M8.39 20.41h37.334" stroke="#2C2E2F" stroke-linecap="round" stroke-linejoin="round"/></g></svg><svg width="38" height="40" viewBox="0 0 38 40" id="ic_pp_request_money" x="272" y="38"><g transform="translate(-9 -7)" fill="none" fill-rule="evenodd"><path d="M0 0h56v56H0z"/><path d="M43.46 43.905c-.026-.675-.054-1.32-.08-1.94m.08 1.932c-11.206-1.27-21.835 3.09-33.04 1.816m.295-15.33c-.313.05-.617.108-.915.172.23 5.655.388 9.493.62 15.15m15.466-20.21c-4.26.25-8.525.31-12.82-.48v15.162c7.724 1.327 19.838-1.586 31.666-.23.474.068.95.143 1.423.23V25.465c-4.19-.77-8.352-.73-12.508-.494M29.5 7v28m7.986-6.3l-7.875 6.817M21.737 28.7l7.875 6.817" stroke="#2C2E2F" stroke-linecap="round" stroke-linejoin="round"/></g></svg><svg width="50" height="33" viewBox="0 0 50 33" id="ic_pp_resolution_center"><g transform="translate(-3 -11)" fill="none" fill-rule="evenodd"><path d="M0 0h56v56H0z"/><path d="M31.5 16.853V13.47c0-1.098-.892-1.97-1.99-1.97H5.49c-1.09 0-1.99.88-1.99 1.965v14.758c0 1.088.897 1.965 2.005 2.277H6.5v3.638L11 30.5h9.002M24.5 35.832V22.45c-.255-1.098.636-1.97 2-1.97h23.754c1.09 0 1.99.88 2.245 1.964v14.758c-.255 1.09-1.153 1.965-2.26 2.277h-.995v3.638l-4.5-3.64H29" stroke="#2C2E2F" stroke-linecap="round"/><path d="M33.374 29.845l2.8 2.954 4.943-5.26" stroke="#2C2E2F"/><path d="M16.484 22.937v1.2h1.2v-1.2h-1.2zm-.842-4.112c0-.252.03-.486.087-.703.056-.216.148-.404.274-.562.126-.16.283-.285.47-.38.187-.093.41-.14.67-.14.388 0 .696.112.922.336.227.223.355.533.384.93.014.267-.018.494-.098.682-.08.187-.185.36-.318.514-.133.155-.277.303-.432.443-.155.14-.302.294-.443.46-.14.166-.26.355-.357.568-.097.213-.153.47-.167.774v.508h.917v-.422c0-.187.027-.355.08-.503.055-.148.127-.285.217-.41.09-.127.19-.246.303-.358.11-.112.225-.222.34-.33.115-.116.228-.235.34-.357.11-.123.21-.256.297-.4.086-.145.156-.305.21-.482.054-.177.08-.377.08-.6 0-.347-.054-.653-.166-.92-.112-.267-.268-.492-.47-.676-.2-.184-.44-.325-.718-.422-.277-.098-.585-.146-.923-.146-.374 0-.713.064-1.015.194-.302.13-.558.31-.766.546-.21.234-.37.51-.48.828-.113.317-.165.66-.158 1.027h.918z" fill="#2C2E2F"/></g></svg><svg width="41" height="42" viewBox="0 0 41 42" id="ic_pp_self_service_demand_gen" y="202"><g transform="translate(-8 -7)" fill="none" fill-rule="evenodd"><path d="M.28.153h56v56h-56z"/><path d="M29.627 17.91c.88 1.726.197 3.837-1.53 4.717-1.72.878-3.834.195-4.713-1.53-.88-1.722-.196-3.834 1.528-4.713 1.725-.88 3.835-.196 4.715 1.527zM35.043 11.81L21.437 8.05c-.733-.2-1.55.216-1.817.928l-4.456 11.93c-.266.712-.2 1.85.144 2.527l12.036 23.582c.346.677 1.183.948 1.86.603l17.9-9.136c.677-.346.95-1.183.603-1.86L37.784 17.18M16.315 13l-1.952 1.307c-.63.422-1.242 1.384-1.357 2.135l-3.99 26.174c-.115.753.406 1.46 1.158 1.576l15.26 2.326" stroke="#2C2E2F" stroke-linecap="round" stroke-linejoin="round"/></g></svg><svg width="38" height="38" viewBox="0 0 38 38" id="ic_pp_send_money" x="272" y="153"><g transform="translate(-9 -9)" fill="none" fill-rule="evenodd"><path d="M0 0h56v56H0z"/><path d="M43.46 43.905c-.026-.675-.054-1.32-.08-1.94m.08 1.932c-11.206-1.27-21.835 3.09-33.04 1.816m.295-15.33c-.313.05-.617.108-.915.172.23 5.655.388 9.493.62 15.15m15.466-20.21c-4.26.25-8.525.31-12.82-.48v15.162c7.724 1.327 19.838-1.586 31.666-.23.474.068.95.143 1.423.23V25.465c-4.19-.77-8.352-.73-12.508-.494M29.5 9.8v22.968M29.61 9.8l7.876 6.817M29.61 9.8l-7.874 6.817" stroke="#2C2E2F" stroke-linecap="round" stroke-linejoin="round"/></g></svg><svg width="30" height="38" viewBox="0 0 30 38" id="ic_pp_shipping_calculator" x="272" y="191"><g transform="translate(-13 -9)" fill="none" fill-rule="evenodd"><path d="M0 0h56v56H0z"/><path d="M38.5 18.724c0 .428-.407.775-.905.775h-19.19c-.5 0-.905-.35-.905-.776v-3.45c0-.427.406-.774.904-.774h19.19c.5 0 .905.348.905.775v3.45zM22.5 26.304c0 .66-.536 1.196-1.196 1.196h-2.608c-.66 0-1.196-.536-1.196-1.196v-2.608c0-.66.536-1.196 1.196-1.196h2.608c.66 0 1.196.536 1.196 1.196v2.608zM22.5 33.304c0 .66-.536 1.196-1.196 1.196h-2.608c-.66 0-1.196-.536-1.196-1.196v-2.608c0-.66.536-1.196 1.196-1.196h2.608c.66 0 1.196.536 1.196 1.196v2.608zM22.5 40.304c0 .66-.536 1.196-1.196 1.196h-2.608c-.66 0-1.196-.536-1.196-1.196v-2.608c0-.66.536-1.196 1.196-1.196h2.608c.66 0 1.196.536 1.196 1.196v2.608zM30.5 26.304c0 .66-.536 1.196-1.196 1.196h-2.608c-.66 0-1.196-.536-1.196-1.196v-2.608c0-.66.536-1.196 1.196-1.196h2.608c.66 0 1.196.536 1.196 1.196v2.608zM30.5 33.304c0 .66-.536 1.196-1.196 1.196h-2.608c-.66 0-1.196-.536-1.196-1.196v-2.608c0-.66.536-1.196 1.196-1.196h2.608c.66 0 1.196.536 1.196 1.196v2.608zM30.5 40.304c0 .66-.536 1.196-1.196 1.196h-2.608c-.66 0-1.196-.536-1.196-1.196v-2.608c0-.66.536-1.196 1.196-1.196h2.608c.66 0 1.196.536 1.196 1.196v2.608zM38.5 26.304c0 .66-.536 1.196-1.196 1.196h-2.608c-.66 0-1.196-.536-1.196-1.196v-2.608c0-.66.536-1.196 1.196-1.196h2.608c.66 0 1.196.536 1.196 1.196v2.608zM37.304 41.5h-2.608c-.66 0-1.196-.536-1.196-1.196v-9.608c0-.66.536-1.196 1.196-1.196h2.608c.66 0 1.196.536 1.196 1.196v9.608c0 .66-.536 1.196-1.196 1.196z" stroke="#2C2E2F"/><path d="M18 9h22.996C42.103 9 43 9.902 43 11.003v33.994C43 46.103 42.102 47 41.008 47H14.992c-1.1 0-1.992-.902-1.992-2.003V9" stroke="#2C2E2F" stroke-linecap="round"/></g></svg><svg width="46" height="38" viewBox="0 0 46 38" id="ic_pp_tax_calculator" x="190" y="37"><g transform="translate(-5 -9)" fill="none" fill-rule="evenodd"><path d="M0 0h56v56H0z"/><path d="M38.416 29.45c.96.96 1.442 2.12 1.442 3.476 0 1.357-.48 2.515-1.442 3.477-.96.96-2.12 1.44-3.477 1.44-1.367 0-2.53-.48-3.49-1.44-.963-.962-1.443-2.12-1.443-3.477 0-1.357.48-2.516 1.442-3.477.96-.962 2.123-1.443 3.49-1.443 1.356 0 2.515.48 3.476 1.442zM33.59 17.69h.87L23.137 38.38h-.87L33.59 17.69zm-9.566 8.402c.817-.817 1.225-1.8 1.225-2.946 0-1.148-.41-2.13-1.226-2.947-.817-.817-1.806-1.226-2.966-1.226-1.148 0-2.13.405-2.947 1.215-.815.81-1.224 1.795-1.224 2.956 0 1.147.41 2.13 1.225 2.946.818.816 1.8 1.225 2.948 1.225 1.16 0 2.15-.41 2.966-1.225zm13.81 9.726c.803-.802 1.203-1.766 1.203-2.892 0-1.127-.4-2.09-1.202-2.893-.802-.8-1.766-1.202-2.893-1.202-1.14 0-2.11.402-2.912 1.203-.802.802-1.203 1.766-1.203 2.893 0 1.126.4 2.09 1.203 2.892.802.802 1.773 1.203 2.912 1.203 1.127 0 2.09-.4 2.893-1.202zm-13.283-9.196c-.96.96-2.123 1.442-3.49 1.442-1.356 0-2.515-.48-3.476-1.442-.96-.96-1.442-2.12-1.442-3.476 0-1.357.48-2.52 1.442-3.484.96-.966 2.12-1.45 3.477-1.45 1.367 0 2.53.484 3.49 1.45.963.965 1.443 2.127 1.443 3.484 0 1.356-.48 2.515-1.442 3.476z" fill="#2C2E2F"/><path d="M14 10.5h35.497c.554 0 1.003.455 1.003 1v33c0 .553-.445 1-1.003 1H6.503c-.554 0-1.003-.454-1.003-1v-34" stroke="#2C2E2F" stroke-linecap="round"/></g></svg><svg width="41" height="38" viewBox="0 0 41 38" id="ic_pp_third_party_shopping_card" x="272"><g transform="matrix(-1 0 0 1 50 -17)" fill="none" fill-rule="evenodd"><path d="M0 8h56v56H0z"/><circle stroke="#2C2E2F" cx="42.7" cy="50.7" r="3.5"/><circle stroke="#2C2E2F" cx="13.3" cy="50.7" r="3.5"/><g transform="translate(13 17)" stroke-linecap="round" stroke="#2C2E2F"><path d="M37 .5h-6l-5.896 22.86 2.815 4.13H0M25.104 23.36l-23.61-3.84C.945 19.433.5 18.915.5 18.364V6.497c0-.55.443-.997 1-.997H26"/></g></g></svg><svg width="46" height="38" viewBox="0 0 46 38" id="ic_pp_virtual_terminal" x="137" y="117"><g transform="translate(-5 -10)" fill="none" fill-rule="evenodd"><path d="M0 0h56v56H0z"/><path d="M18.5 47.5l4-5H6.503c-.554 0-1.003-.454-1.003-1V12.5c0-.552.45-.998 1.002-.998h42.995c.554 0 1.003.455 1.003 1v29c0 .553-.445 1-1.003 1H33.5l4 5" stroke="#2C2E2F" stroke-linecap="round"/><path stroke="#2C2E2F" d="M19.5 17.5H37v12H19.5z"/><path d="M20 20.5h16.5M20 23.5h16.5M6.5 35.5h44" stroke="#2C2E2F" stroke-linecap="square"/></g></svg><svg width="40" height="36" viewBox="0 0 40 36" id="ic_pp_website_payments_pro" x="272" y="78"><g transform="translate(-8 -10)" fill="none" fill-rule="evenodd"><path d="M0 0h56v56H0z"/><path d="M13.514 17.5h32.86c.622 0 1.126.446 1.126.993v26.014c0 .548-.493.993-1.125.993H9.625c-.62 0-1.125-.446-1.125-.993V16.493M8.5 16v-4.507c0-.548.456-.993.998-.993h31.004c.55 0 .998.447.998.993V14" stroke="#2C2E2F" stroke-linecap="round"/><path d="M25.827 28.414L27.95 23.8l2.206 4.57 4.844.688-3.467 3.61.874 5.04-4.35-2.336-4.303 2.428.778-5.057L21 29.203l4.827-.79z" stroke="#2C2E2F"/></g></svg><svg width="46" height="38" viewBox="0 0 46 38" id="ic_pp_working_capital" y="164"><g transform="translate(-5 -9)" fill="none" fill-rule="evenodd"><path d="M0 0h56v56H0z"/><path d="M19 30.907l2.936-4.386m3.873.138l4.914 3.41m3.695-.723L38.767 24" stroke="#2C2E2F"/><ellipse stroke="#2C2E2F" cx="40.484" cy="22.542" rx="2.484" ry="2.542"/><ellipse stroke="#2C2E2F" cx="32.484" cy="31.542" rx="2.484" ry="2.542"/><ellipse stroke="#2C2E2F" cx="23.483" cy="24.541" rx="2.483" ry="2.541"/><ellipse stroke="#2C2E2F" cx="17.483" cy="32.541" rx="2.483" ry="2.541"/><path d="M14 10.5h35.497c.554 0 1.003.455 1.003 1v33c0 .553-.445 1-1.003 1H6.503c-.554 0-1.003-.454-1.003-1v-34" stroke="#2C2E2F" stroke-linecap="round"/></g></svg><svg width="17" height="19" viewBox="0 0 17 19" id="ic_search" x="236" y="81"><g transform="matrix(-1 0 0 1 21 -2)" fill="none" fill-rule="evenodd"><path d="M0 0h24v22H0z"/><path d="M11.78 15.625c.506.12 1.034.182 1.577.182 3.67 0 6.643-2.867 6.643-6.403C20 5.867 17.026 3 13.357 3c-3.67 0-6.643 2.867-6.643 6.404 0 2.022 1.132 3.657 2.492 5 .284.28.048.493-.02.59C9.09 15.09 4 20 4 20" stroke="#2C2E2F" stroke-linecap="round" stroke-linejoin="round"/></g></svg></svg>