<svg xmlns="http://www.w3.org/2000/svg" width="46" height="39" viewBox="0 0 46 39" version="1.1"><title>PayPal Here</title><desc>PayPal Here tool icon</desc><g stroke="none" stroke-width="1" fill="none" fill-rule="evenodd"><g transform="translate(-551.000000, -523.000000)"><g transform="translate(443.000000, 466.000000)"><g transform="translate(95.000000, 40.000000)"><g transform="translate(8.000000, 8.000000)"><rect fill-opacity="0" fill="#000000" x="0" y="0" width="56" height="56"/><path d="M24 37.8L7 37.8C6.2 37.8 5.6 37.2 5.6 36.4L5.6 11.2C5.6 10.4 6.2 9.8 7 9.8L49 9.8C49.8 9.8 50.4 10.4 50.4 11.2L50.4 36.4C50.4 37.2 49.8 37.8 49 37.8L44.8 37.8M6.5 30.5L27.5 30.5M40.5 30.5L49.5 30.5M6.5 25.5L49.5 25.5M43.5 43.5L43.5 47.5M22.3 41.9C21.6 42.7 21.9 43.4 23 43.4L45.6 43.4C46.7 43.4 47 42.7 46.3 41.9L35.6 29.5C34.9 28.7 33.7 28.7 33 29.5L22.3 41.9Z" stroke="#2C2E2F"/></g></g></g></g></g></svg>